<svg width="202" height="29" viewBox="0 0 202 29" fill="none" xmlns="http://www.w3.org/2000/svg">
<path d="M7.05005 26.27L2.14001 9H0.140015L-0.0100098 8.5H1.98999C0.67999 3.29 4.12995 0.740005 10.0699 0.740005C11.8621 0.733613 13.6463 0.979353 15.37 1.47L11.52 4.9C9.52002 2.4 8.51995 1.51 7.44995 1.51C5.54995 1.51 6.19994 3.61 6.68994 5.35L7.58997 8.5H15.52L15.67 9H7.75L12.66 26.24L15.66 28.7H5.41003L7.05005 26.27Z" fill="white"/>
<path d="M34.8801 14.63C36.5665 14.5976 38.2137 15.1408 39.5501 16.17C37.7541 14.3165 35.3182 13.2184 32.74 13.1H29.5101C30.3501 10.31 33.7901 8.33 37.6701 8.33C41.5501 8.33 45.62 9.9 46.75 13.86L50.2901 26.27L53.2901 28.73H45.36L44 23.8C43.68 27.36 41.3501 28.8 38.4101 28.8C36.3423 28.7273 34.3479 28.015 32.702 26.7613C31.056 25.5076 29.8395 23.7742 29.22 21.8C28.06 17.82 30.7001 14.63 34.8801 14.63ZM41.08 26.47C43.54 26.47 43.99 24.13 43.36 21.9C42.53 18.99 39.21 15.24 36.07 15.24C33.78 15.24 33.0701 17.42 33.7701 19.72C34.6801 22.91 38.2 26.47 41.08 26.47ZM42.7801 19.59L40.58 11.88C39.99 9.82 39.0101 8.81 37.6801 8.81C35.5701 8.81 34.99 10.81 35.07 12.88C38.4051 14.0456 41.1653 16.4477 42.7801 19.59Z" fill="white"/>
<path d="M69.6801 22.91C70.6801 26.43 67.8101 28.73 63.8001 28.73H55.62L53 22.11L62 28.25C62.5529 28.3319 63.1112 28.372 63.6701 28.37C66.1301 28.37 67.9 27.48 67.48 26.03C66.85 23.8 62.05 22.11 58.88 20.65L56.5501 19.6C53.4401 18.19 51.01 16.17 50.32 13.78C49.4 10.55 51.97 8.53 55.59 8.53H63.1701L65.84 14.83L57.63 9.05C56.9887 8.94499 56.3399 8.89149 55.69 8.89C54.01 8.89 51.8401 9.3 52.2801 10.83C52.8301 12.73 55.4301 13.83 59.1701 15.48L62.1701 16.77C65.7401 18.31 69.0001 20.45 69.6801 22.91Z" fill="white"/>
<path d="M92.41 26.27L95.41 28.73H85.16L86.78 26.27L83.3399 14.27C83.0191 13.2104 82.3888 12.2709 81.5299 11.5724C80.671 10.8738 79.6228 10.4481 78.52 10.35C77.9251 10.3455 77.3386 10.4906 76.8144 10.7719C76.2902 11.0532 75.8451 11.4618 75.52 11.96L79.62 26.31L82.62 28.77H72.37L73.99 26.31L69.11 9.22001C67.69 4.22001 69.32 0.770004 74.02 0.770004C77.64 0.770004 80.2199 2.87 80.9399 5.38C81.0906 5.94681 81.0827 6.54413 80.917 7.1067C80.7512 7.66928 80.4339 8.17548 80 8.57C80.4725 8.49078 80.9509 8.45065 81.43 8.45C83.1226 8.4925 84.7567 9.07692 86.0924 10.1174C87.428 11.1578 88.3946 12.5993 88.8499 14.23L92.41 26.27ZM80.41 5.36C80.1623 4.40881 79.6231 3.55895 78.8681 2.92952C78.1132 2.30008 77.1802 1.92261 76.1999 1.85C73.7799 1.85 73.45 4.29 74.28 7.2L75.4699 11.36C76.2774 10.2858 77.3487 9.43841 78.5799 8.90001C80.3299 8.05001 80.83 6.94 80.38 5.36H80.41Z" fill="white"/>
<path d="M27.5601 26.4L30.4301 28.73H20.72L22.26 26.4L16.4399 6.05L13.85 4.68L20.6899 2.34L27.5601 26.4Z" fill="white"/>
<path d="M140.45 24H149.92V24.14C150.06 24.65 151.31 28.03 151.56 28.75H157.13L148.89 5.83H141.32L133.64 28.75H138.88C139.02 28.28 139.52 26.85 140.37 24.13L140.45 24ZM145 9.25L149 20.38H141.27L145 9.25Z" fill="white"/>
<path d="M111.79 15.15H102.37V10.84H113.71V5.81H97.01V28.73H102.37V20H111.79V15.15Z" fill="white"/>
<path d="M121.52 23.69V5.81H116.34V28.73H130.88L132.4 23.69H121.52Z" fill="white"/>
<path d="M202 28.73V5.81H196.82V14.17H186.82V5.81H181.64V28.73H186.82V19.21H196.82V28.73H202Z" fill="white"/>
<path d="M179.08 21.16C179.08 15.05 173.39 14.5 168.82 14.05C165.89 13.77 163.57 13.54 163.57 11.86C163.57 11.33 163.9 9.6 168.12 9.6C170.778 9.51303 173.411 10.1342 175.75 11.4L177.58 7.48C174.437 6.18738 171.069 5.52811 167.67 5.54C162.33 5.54 158.74 8.47 158.74 12.84C158.74 17.95 164.41 18.56 168.98 19.05C171.88 19.36 174.17 19.61 174.17 21.05C174.17 23.17 172.29 24.24 168.57 24.24C165.73 24.1793 162.938 23.4966 160.39 22.24L158.75 26.76C161.896 28.0995 165.263 28.8454 168.68 28.96C178.07 29 179.08 23.52 179.08 21.16Z" fill="white"/>
</svg>
