<svg width="1778" height="183" viewBox="-73 0 1778 183" fill="none" xmlns="http://www.w3.org/2000/svg">
<path d="M20.66 26.6143H11.34V33.2944C11.3237 33.7416 11.4031 34.1871 11.573 34.6011C11.7429 35.0151 11.9993 35.388 12.325 35.6948C12.6508 36.0016 13.0383 36.2351 13.4617 36.3799C13.8851 36.5247 14.3346 36.5772 14.78 36.5342V36.9443H0V36.5342C0.4 36.5342 3.44 36.3344 3.44 33.2944V13.2344C3.45633 12.7872 3.37689 12.3417 3.207 11.9277C3.03712 11.5138 2.78071 11.1408 2.45496 10.834C2.12922 10.5272 1.74166 10.2933 1.31826 10.1484C0.894861 10.0036 0.445404 9.95109 0 9.99414V9.59424H20.66C27.14 9.59424 30.38 13.8445 30.38 18.1045C30.38 22.3645 27.34 26.6143 20.66 26.6143ZM17.01 11.4141H11.34V24.7842H17.01C21.26 24.7842 23.29 21.7845 23.29 18.1045C23.29 14.6145 21.26 11.374 17.01 11.374V11.4141ZM57.93 37.144L45.17 26.6143V33.2944C45.1537 33.7416 45.2331 34.1871 45.403 34.6011C45.5729 35.0151 45.8293 35.388 46.155 35.6948C46.4808 36.0016 46.8683 36.2351 47.2917 36.3799C47.7151 36.5247 48.1646 36.5772 48.61 36.5342V36.9443H33.82V36.5342C34.23 36.5342 37.27 36.3344 37.27 33.2944V13.2344C37.2865 12.7863 37.2068 12.3395 37.0364 11.9248C36.8659 11.5101 36.6086 11.1366 36.2817 10.8296C35.9548 10.5226 35.566 10.2896 35.1414 10.1455C34.7168 10.0014 34.2662 9.94957 33.82 9.99414V9.59424H54.46C60.94 9.59424 64.19 13.8445 64.19 18.1045C64.19 22.3645 61.19 26.6143 54.46 26.6143H48.18C49.6 28.0243 52.64 28.6143 55.27 28.6143C56.4301 28.5915 57.5854 28.4577 58.72 28.2144L69.25 36.7241V37.124L57.93 37.144ZM50.84 11.4141H44.96V24.7842H50.84C55.09 24.7842 57.12 21.7845 57.12 18.1045C57.12 14.6145 55.09 11.374 50.84 11.374V11.4141ZM91.95 37.144V36.7441C93.37 36.7441 93.95 36.3342 93.95 35.3242C93.8891 34.7689 93.7546 34.224 93.55 33.7041L90.71 29.0444H79.19L77.19 33.0444C76.9593 33.626 76.8209 34.2399 76.78 34.8643C76.78 35.8643 77.19 36.4844 78.4 36.4844V36.894H71.31V36.4844C72.93 36.4844 74.15 35.2741 75.16 33.2441L83.67 16.2441L81.24 12.394C80.02 10.394 78.81 9.96436 77.39 9.96436V9.56445H88.73L102.46 33.6641C103.27 35.0841 104.28 36.6641 106.1 36.6641V37.0645L91.95 37.144ZM84.66 18.3042L80.21 27.0142H89.73L84.66 18.3042ZM125.17 37.144H108.97V36.7441C109.37 36.7441 112.41 36.5341 112.41 33.4941V13.4443C112.426 12.9972 112.347 12.5517 112.177 12.1377C112.007 11.7237 111.751 11.3508 111.425 11.0439C111.099 10.7371 110.712 10.5037 110.288 10.3589C109.865 10.2141 109.415 10.1611 108.97 10.2041V9.79443H125.17C132.46 9.79443 139.96 14.4542 139.96 23.5742C140.16 32.4442 132.46 37.1045 125.17 37.1045V37.144ZM130.84 18.3042C130.84 13.2342 127.6 11.4141 124.16 11.4141H120.31V35.3242H124.16C127.6 35.3242 130.84 33.4941 130.84 28.4341V18.3042ZM161.23 37.144V36.7441C162.64 36.7441 163.23 36.3342 163.23 35.3242C163.169 34.7689 163.035 34.224 162.83 33.7041L160.19 29.0444H148.67L146.67 33.0444C146.443 33.6266 146.308 34.2405 146.27 34.8643C146.27 35.8643 146.67 36.4844 147.89 36.4844V36.894H140.8V36.4844C142.42 36.4844 143.64 35.2741 144.65 33.2441L153.15 16.2441L150.72 12.394C149.51 10.394 148.29 9.96436 146.88 9.96436V9.56445H158.02L171.79 33.6743C172.6 35.0943 173.61 36.6743 175.44 36.6743V37.0742L161.23 37.144ZM153.94 18.3042L149.48 27.2144H159L153.94 18.3042Z" fill="white"/>
<path d="M364.32 7.36914V6.5791H358.03V7.36914H360.42L353.48 32.1689L345.19 7.36914H348.12V6.5791H337.44V7.40918H340.78L351.86 40.6992L361.2 7.36914H364.32Z" fill="white"/>
<path d="M370.4 6.40918H369.61L360.3 38.269H357.37V39.0391H363.91V38.269H361.11L363.82 28.7393H372.91L375.75 38.269H372.84V39.0391H383.23V38.269H379.99L370.4 6.40918ZM364.04 27.999L368.28 13.229L372.69 27.999H364.04Z" fill="white"/>
<path d="M384.56 38.269V39.0391H406.79V28.2891H406.12V28.4492C406.057 29.9578 405.754 31.4469 405.22 32.8594C404.677 34.3737 403.696 35.6919 402.401 36.6465C401.107 37.6011 399.557 38.1487 397.95 38.2192H392.25V7.38916H395.83V6.5791H384.46V7.38916H387.99V38.3892L384.56 38.269Z" fill="white"/>
<path d="M430.79 28.9292C430.26 34.3392 426.66 38.2192 422.18 38.2192H416.04V22.689H417.82C421.18 22.689 423.3 25.2394 423.33 29.3394V29.769H423.97V15.2793H423.3V15.439C423.04 19.349 420.92 21.9492 418.3 21.9492H416.06V7.38916H423.06C424.221 7.27363 425.384 7.5865 426.33 8.26904C427.214 9.07163 427.925 10.0462 428.421 11.1328C428.916 12.2194 429.184 13.3955 429.21 14.5894V14.9692H429.83V6.5791H408.72V7.38916H411.82V38.3892H408.53V39.1489H431.36V28.7793H430.81L430.79 28.9292Z" fill="white"/>
<path d="M453.71 40.3491V7.38916H456.64V6.5791H450.33V7.38916H452.95V29.6489L440.82 6.5791H436.39L436.31 6.45898V6.5791H433.19V7.38916H435.93L435.91 38.269H433.19V39.0391H439.36V38.269H436.67L436.7 7.93896L453.71 40.3491Z" fill="white"/>
<path d="M474.3 7.35938C477.3 7.35938 480.19 11.299 480.59 15.939V16.1094H481.19V6.5791H458.79V16.1094H459.38V15.939C460.17 10.749 462.91 7.40918 466.53 7.40918H467.98V38.4092H464.91V39.1689H475.02V38.4092H472.02V7.40918L474.3 7.35938Z" fill="white"/>
<path d="M483.88 7.38916H487.02V38.269H483.86V39.0391H494.1V38.269H491V7.38916H494.1V6.5791H483.88V7.38916Z" fill="white"/>
<path d="M513.81 7.38916H516.43V29.6489L504.3 6.5791H499.85L499.8 6.45898V6.5791H496.65V7.38916H499.39V38.269H496.65V39.0391H502.85V38.269H500.15V7.93896L517.19 40.3491V7.38916H520.13V6.5791H513.81V7.38916Z" fill="white"/>
<path d="M533.45 6.00928C526.89 6.00928 521.15 14.1294 521.15 23.3794C521.15 32.1694 526.61 39.6094 533.06 39.6094C539.51 39.6094 545.48 32.1992 545.48 23.4292C545.5 14.1592 539.91 6.00928 533.45 6.00928ZM541.14 22.689C541.14 25.2996 540.92 27.9056 540.48 30.479C539.43 36.389 537.16 38.9189 532.97 38.9189C532.154 38.955 531.34 38.8156 530.583 38.5103C529.826 38.2049 529.143 37.7407 528.58 37.1489C526.63 34.9089 525.46 29.619 525.46 23.019C525.447 20.0104 525.783 17.0106 526.46 14.0791C527.58 9.3191 529.87 6.93896 533.28 6.93896C534.181 6.90656 535.078 7.07762 535.904 7.43945C536.729 7.80129 537.463 8.34493 538.05 9.0293C539.93 11.1793 541.19 16.4693 541.19 22.5693L541.14 22.689Z" fill="white"/>
<path d="M879.52 38.2593H867.66V25.0293H877.01V21.5591H867.66V8.38916H879.55V4.84912H860.62V41.7993H879.55L879.52 38.2593ZM858.77 15.0894C858.53 7.71936 853.37 4.23926 846.58 4.23926C835.35 4.23926 832.26 13.2393 832.26 23.2393C832.26 33.8493 835.6 42.3892 846.82 42.3892C852.65 42.3892 858.53 39.4593 858.71 31.5293H852.83C852.77 35.7393 850.89 40.0693 846.88 40.0693C840.45 40.0693 839.78 30.6193 839.78 23.5493V23.0591C839.78 17.6391 839.91 6.41895 846.4 6.41895C850.77 6.41895 851.86 11.5393 852.04 15.0093H858.77V15.0894ZM822.13 4.84912H816.66L804.16 41.7993H807.66L811.72 29.6592H822.28L825.86 41.7993H833.57L822.13 4.84912ZM812.91 26.1294L817.15 13.3892H817.46L821.28 26.1294H812.91ZM805.02 30.459C805.02 25.089 802.29 21.4591 796.28 19.8491L793.28 19.0591C789.76 18.1391 786.97 16.6792 786.97 12.7192C786.97 9.11924 789.22 7.34912 791.97 7.34912C794.72 7.34912 797.79 9.11912 799.67 12.5991L803.55 8.68896C802.263 7.30487 800.705 6.20109 798.972 5.4458C797.24 4.69051 795.37 4.30024 793.48 4.29932C787.36 4.29932 781.65 8.44897 781.65 16.189C781.65 23.079 786.45 25.4593 791.12 26.7393L793.24 27.3491C797.31 28.4491 799.13 31.1892 799.13 33.9292C799.188 34.7032 799.082 35.4808 798.819 36.2109C798.555 36.9411 798.14 37.6073 797.601 38.1655C797.062 38.7238 796.41 39.1612 795.69 39.4497C794.969 39.7382 794.196 39.8712 793.42 39.8394C789.54 39.8394 786.51 36.6694 784.81 33.3794L780.74 37.2793C783.84 41.3693 788.93 42.4692 792.74 42.4692C800.59 42.4692 805.02 37.099 805.02 30.459ZM772.74 24.459C774.673 23.809 776.35 22.5621 777.529 20.8979C778.708 19.2338 779.328 17.2385 779.3 15.1992C779.3 10.0792 775.72 4.8291 767.77 4.8291H755.77V41.7793H762.77V26.1094H765.77L773.11 41.7793H780.87L772.74 24.459ZM772.08 15.459C772.08 20.089 770.38 23.459 765.89 23.459H762.79V7.45898H765.89C770.38 7.53898 772.08 10.889 772.08 15.519V15.459ZM754.08 38.1992H742.23V24.9692H751.57V21.499H742.23V8.3291H754.12V4.78906H735.19V41.7393H754.12L754.08 38.1992ZM730.54 4.78906L722.83 33.2593H722.53L715.25 4.78906H707.48L717.86 41.7393H723.5L734 4.84912H730.54V4.78906Z" fill="white"/>
<path d="M1168.76 27.9185H1169.27V26.9185H1170.27C1170.71 26.9185 1171.44 26.9187 1171.44 26.1187C1171.44 25.3187 1170.71 25.3184 1170.27 25.3184H1168.81L1168.76 27.9185ZM1169.27 26.4785V25.7588H1170.33C1170.62 25.7588 1170.88 25.7587 1170.88 26.1187C1170.88 26.4787 1170.62 26.4785 1170.33 26.4785H1169.27Z" fill="white"/>
<path d="M1172 27.9185H1172.55L1172.83 27.3286H1174.34L1174.61 27.9185H1175.15L1173.88 25.3184H1173.3L1172 27.9185ZM1173 26.9185L1173.55 25.7588L1174.1 26.9185H1173Z" fill="white"/>
<path d="M1176.47 27.9185H1176.98V26.9185H1177.79L1178.56 27.9185H1179.19L1178.39 26.8584C1178.49 26.8585 1178.59 26.8388 1178.68 26.8003C1178.77 26.7617 1178.85 26.7053 1178.92 26.6343C1178.99 26.5633 1179.04 26.4793 1179.07 26.3872C1179.11 26.2951 1179.12 26.197 1179.12 26.0986C1179.12 25.4586 1178.67 25.3184 1178.05 25.3184H1176.47V27.9185ZM1176.98 26.4785V25.7388H1177.98C1178.4 25.7388 1178.62 25.7984 1178.62 26.1084C1178.62 26.4184 1178.4 26.4785 1177.98 26.4785H1176.98Z" fill="white"/>
<path d="M1181.19 25.3184H1180.68V27.9185H1181.19V25.3184Z" fill="white"/>
<path d="M1184.81 26.1084C1184.73 25.8784 1184.52 25.6787 1183.89 25.6787C1183.55 25.6787 1183.2 25.7688 1183.2 26.0088C1183.2 26.2488 1183.26 26.2283 1183.79 26.2983L1184.4 26.3887C1184.99 26.4787 1185.34 26.6987 1185.34 27.1387C1185.34 27.7487 1184.75 27.9785 1184.05 27.9785C1182.93 27.9785 1182.65 27.4285 1182.59 27.2285L1183.08 27.0786C1183.18 27.2686 1183.37 27.5386 1184.08 27.5386C1184.5 27.5386 1184.85 27.4087 1184.85 27.1787C1184.85 26.9487 1184.65 26.9084 1184.28 26.8584L1183.65 26.7788C1183.05 26.6888 1182.71 26.4286 1182.71 26.0386C1182.71 25.2586 1183.71 25.2588 1183.93 25.2588C1185.06 25.2588 1185.25 25.7785 1185.32 25.9585L1184.81 26.1084Z" fill="white"/>
<path d="M1227.96 37.2788C1228.58 42.4088 1231.28 41.6486 1231.42 42.0986H1220.99C1220.99 41.9086 1223.99 42.0386 1223.37 37.5186L1220.66 17.4585C1220.55 16.9285 1220.55 16.3285 1220.24 16.4585C1219.93 16.5885 1211.05 38.1387 1211.05 38.1387C1210.92 38.4887 1210.7 38.7187 1210.41 38.1987C1210.12 37.6787 1202.01 19.9385 1202.01 19.9385C1201.6 19.0385 1200.88 17.6084 1200.77 17.3584C1200.55 16.9084 1200.23 16.8484 1200.26 18.3584L1198.12 38.6885C1197.63 42.2385 1200.99 41.9685 1200.95 42.1885H1193.55C1193.45 42.0185 1196.03 42.3487 1196.55 38.6187L1198.99 16.1787C1198.8 11.8287 1195.74 12.0587 1195.74 11.6987H1203.5L1203.61 11.9385L1211.86 29.7983L1212.1 30.2388C1212.35 30.7588 1212.32 31.1087 1212.6 30.4287L1220.68 11.6685H1228.15C1228.15 11.9285 1225.15 11.7986 1225.15 15.5186L1227.96 37.2788Z" fill="white"/>
<path d="M1057.66 40.6084H1053.47C1052.01 40.5484 1050.24 40.8284 1050.24 39.0884V15.4888C1050.24 11.8388 1054.32 11.8286 1054.59 11.5386H1042.04C1041.86 11.7986 1045.88 11.8987 1045.88 15.6187V38.3887C1045.81 41.3887 1041.55 41.4684 1041.55 41.6484H1063.78L1065.02 35.1284C1064.54 35.1284 1064.88 40.5086 1057.69 40.5986" fill="white"/>
<path d="M1104.54 39.0483C1104.97 42.7983 1107.85 41.8382 1107.85 42.1982H1099.79C1099.79 41.8382 1103.02 42.1986 1102.96 38.8086V15.9282C1103.02 11.9282 1099.56 11.9282 1099.47 11.6582H1107.54L1124.28 32.2583V15.5386C1124.17 11.5386 1121.06 11.7886 1121.01 11.5386H1129.45C1129.45 11.7386 1126.12 11.8086 1125.95 15.5386V41.4185C1125.95 41.4185 1126.24 43.4186 1125.04 41.8286L1104.92 16.5186C1104.74 16.3086 1104.66 16.5184 1104.64 17.1484V38.6982L1104.54 39.0483Z" fill="white"/>
<path d="M1078.15 27.4243C1077.34 27.4243 1077.45 26.9641 1077.76 26.2041C1077.76 26.2041 1080.51 19.414 1080.83 18.584C1081.25 17.524 1081.71 17.7343 1082.02 18.6543L1084.78 26.334C1085.05 27.184 1085.39 27.4243 1084.47 27.4243C1083.74 27.4243 1078.47 27.4243 1078.15 27.4243ZM1094.44 38.4243L1083.19 11.9141C1082.37 11.0041 1082.09 12.0342 1082.09 12.0342C1080.98 14.5842 1070.69 39.1743 1070.69 39.1743C1069.29 42.4543 1067.47 42.0642 1067.47 42.2842H1074.72C1074.72 41.9242 1070.79 42.524 1072.13 39.104L1076.03 29.6343C1076.43 29.0443 1076.46 28.8643 1077.42 28.8643H1084.72C1085.61 28.8643 1085.65 28.8641 1086.04 29.7441L1089.72 38.6841C1090.79 42.2741 1087.51 42.0739 1087.56 42.2939H1097.9C1097.99 41.9839 1096.32 43.0041 1094.44 38.4341" fill="white"/>
<path d="M1189.33 10.1787L1176.97 4.11865L1164.61 10.1787L1176.97 6.41846L1189.33 10.1787Z" fill="white"/>
<path d="M1176.27 41.4509H1176.16C1170.25 41.4509 1166.35 35.9308 1166.35 27.3308C1166.35 17.4708 1170.35 12.6907 1176.25 12.6907C1182.15 12.6907 1186.18 17.4708 1186.18 27.3308C1186.18 35.8908 1182.11 41.3909 1176.25 41.4509M1176.32 11.5408C1174.24 11.506 1172.17 11.8877 1170.24 12.6638C1168.31 13.4399 1166.56 14.5943 1165.08 16.0593C1163.6 17.5243 1162.44 19.2703 1161.64 21.1941C1160.85 23.1178 1160.45 25.1802 1160.47 27.2605C1160.47 35.3605 1166.61 42.5906 1176.24 42.5906C1185.87 42.5906 1192.18 35.3605 1192.18 27.2605C1192.2 25.1797 1191.8 23.1169 1191 21.1931C1190.21 19.2693 1189.04 17.5236 1187.56 16.0588C1186.09 14.594 1184.33 13.4397 1182.4 12.6638C1180.47 11.8879 1178.4 11.506 1176.32 11.5408Z" fill="white"/>
<path d="M1147.86 41.2671C1154.86 41.1571 1157.93 36.3473 1158.55 36.1373C1158.86 36.0373 1155.16 42.4273 1147.77 42.4273C1131.18 42.4273 1131.47 27.4971 1131.47 27.4971C1131.99 17.0071 1140.53 10.7572 1148.72 11.6172C1150.35 11.777 1151.95 12.1432 1153.48 12.7071C1154.24 12.9471 1156.27 14.0471 1157.09 13.7071C1157.65 13.4971 1158.09 12.3174 1158.21 12.2374L1158.29 20.417C1157.7 20.417 1155.88 12.5474 1147.98 12.5474C1141.51 12.5474 1136.59 19.9072 1136.7 27.0972C1136.87 39.0972 1145.31 41.2874 1147.86 41.2374" fill="white"/>
<path d="M1242.28 27.0986V38.5386C1242.28 40.8186 1242.1 41.0984 1243.59 41.1084H1251.8C1253.27 41.1006 1254.71 40.6553 1255.93 39.8286C1257.82 38.3386 1257.38 36.1088 1257.76 36.0288L1257.57 42.1387H1234.47C1234.38 41.9187 1237.9 42.4988 1237.9 37.4888V16.4087C1237.9 11.4087 1234.65 12.1485 1234.7 11.7485H1257.55L1257.74 17.7485C1257.29 17.7485 1258.5 13.0287 1251.74 12.6187H1244.15C1242.84 12.6187 1242.3 12.6187 1242.3 15.1187V23.0586C1242.3 24.1686 1242.3 24.2686 1243.89 24.2686H1251.23C1254.93 24.2686 1254.43 20.9585 1254.75 20.9585V28.8086C1254.43 28.8086 1254.91 25.1688 1251.4 25.2788H1243.98C1242.35 25.2788 1242.3 25.8387 1242.3 26.9487L1242.28 27.0986Z" fill="white"/>
<path d="M1494.79 35.63V35.0802C1494.79 29.7002 1494.79 24.3298 1494.79 18.9498C1494.79 17.5598 1494.68 16.1699 1494.59 14.7799C1494.59 14.2899 1494.73 14.1698 1495.19 14.1798C1496.68 14.1798 1498.19 14.1798 1499.65 14.1798C1500.05 14.1798 1500.14 14.34 1500.12 14.69C1500.17 15.3893 1500.17 16.0908 1500.12 16.7901C1499.57 19.9001 1499.95 23.03 1499.88 26.15C1499.81 29.27 1499.88 32.4299 1499.88 35.5699C1499.88 37.6199 1499.79 39.67 1499.95 41.71C1500.04 42.78 1500.15 43.8498 1500.19 44.9298C1500.19 45.3198 1500.1 45.47 1499.68 45.46C1498.33 45.46 1496.98 45.46 1495.68 45.46C1495.06 45.46 1494.83 45.07 1494.54 44.71C1493.69 43.63 1492.84 42.53 1492.01 41.42C1491.18 40.31 1490.56 39.42 1489.81 38.42C1489.28 37.7 1488.69 37.0302 1488.15 36.3302C1487.36 35.3302 1486.61 34.2498 1485.83 33.2198C1485.5 32.7798 1485.11 32.38 1484.78 31.94C1484 30.94 1483.24 29.8502 1482.46 28.8302C1481.68 27.8102 1480.85 26.75 1480.05 25.71L1478.55 23.71C1478.55 23.94 1478.55 24.1001 1478.55 24.2501C1478.55 30.8701 1478.55 37.4899 1478.55 44.1099C1478.56 44.3452 1478.6 44.5777 1478.68 44.7999C1478.8 45.2299 1478.68 45.4698 1478.21 45.4698H1473.55C1473.11 45.4698 1473.02 45.2499 1473.04 44.8599C1473.49 35.8599 1473.11 26.8601 1473.25 17.8101C1473.23 16.8137 1472.98 15.8353 1472.52 14.9498C1472.25 14.3698 1472.34 14.1998 1472.98 14.1998C1474.53 14.1998 1476.08 14.1998 1477.64 14.1998C1477.87 14.1877 1478.1 14.2393 1478.3 14.3487C1478.5 14.4581 1478.67 14.6213 1478.78 14.8199C1479.54 15.8899 1480.31 16.9498 1481.11 17.9898C1482.26 19.4898 1483.42 20.99 1484.59 22.46C1484.82 22.76 1485.08 23.0199 1485.3 23.3199L1491.35 31.2501C1492.25 32.4101 1493.15 33.5598 1494.04 34.7198C1494.29 35.0498 1494.5 35.4098 1494.73 35.7198L1494.79 35.63Z" fill="white"/>
<path d="M1512.1 14.21C1513.23 14.21 1514.36 14.21 1515.48 14.21C1516.76 14.2146 1518.03 14.2846 1519.3 14.4199C1521.36 14.6229 1523.35 15.2531 1525.15 16.27C1526.72 17.1503 1528.13 18.2857 1529.33 19.6299C1530.2 20.6502 1530.92 21.7963 1531.45 23.0298C1531.81 23.8598 1532.01 24.7401 1532.3 25.6001C1532.56 26.3732 1532.71 27.183 1532.72 28C1532.72 29 1532.93 30 1532.87 31C1532.81 32 1532.5 33.1297 1532.31 34.1997C1531.8 36.2538 1530.89 38.1871 1529.63 39.8896C1528.87 40.7496 1528.01 41.5201 1527.17 42.3101C1525.91 43.3193 1524.48 44.1101 1522.96 44.6499C1522.37 44.8638 1521.77 45.0214 1521.15 45.1201C1520.28 45.3201 1519.41 45.5099 1518.53 45.6899C1518.26 45.7152 1517.98 45.7152 1517.71 45.6899C1516.71 45.6899 1515.63 45.6899 1514.59 45.6899L1506.88 45.5C1506.53 45.5 1506.37 45.38 1506.41 45.02C1506.48 44.21 1506.6 43.3998 1506.6 42.5898C1506.6 34.2832 1506.6 25.973 1506.6 17.6597C1506.6 16.7097 1506.49 15.7601 1506.41 14.8101C1506.41 14.3701 1506.52 14.2097 1506.97 14.2197C1508.66 14.2197 1510.38 14.21 1512.1 14.21ZM1512.29 19.3896V39.6299C1512.28 39.8007 1512.34 39.969 1512.45 40.0981C1512.56 40.2273 1512.72 40.307 1512.89 40.3198C1513.72 40.4497 1514.56 40.5199 1515.4 40.5298C1516.19 40.5249 1516.98 40.4651 1517.77 40.3501C1518.54 40.2646 1519.31 40.1275 1520.06 39.9399C1521.1 39.6693 1522.07 39.1893 1522.91 38.5298C1524.28 37.507 1525.38 36.1782 1526.14 34.6499C1526.72 33.5253 1527.03 32.2841 1527.06 31.02C1527.06 30.73 1527.06 30.4299 1527.06 30.1499C1527.03 29.088 1526.93 28.0294 1526.76 26.98C1526.55 25.9724 1526.11 25.0257 1525.48 24.21C1525.29 23.95 1525.13 23.6699 1524.95 23.3999C1523.77 21.8813 1522.18 20.7357 1520.36 20.1001C1519.37 19.7185 1518.32 19.5052 1517.26 19.4697C1515.65 19.3197 1514.01 19.3896 1512.33 19.3896H1512.29Z" fill="white"/>
<path d="M1537.18 29.8103V28.5202C1537.22 27.35 1537.42 26.1901 1537.76 25.07C1538.15 23.6898 1538.72 22.3678 1539.46 21.1399C1540.37 19.6339 1541.57 18.3144 1542.97 17.2502C1543.36 16.9402 1543.71 16.57 1544.13 16.3C1544.65 15.9669 1545.19 15.6758 1545.76 15.4299C1546.58 15.0381 1547.42 14.7039 1548.29 14.4299C1549.17 14.2256 1550.05 14.0721 1550.95 13.9699C1551.36 13.8807 1551.78 13.8209 1552.2 13.7902C1553.85 13.7688 1555.5 13.9534 1557.1 14.3401C1558.44 14.6683 1559.73 15.1764 1560.94 15.8503C1561.43 16.1203 1561.84 16.5203 1562.32 16.8503C1563.31 17.5107 1564.2 18.3124 1564.96 19.2302C1565.39 19.761 1565.77 20.3222 1566.12 20.9099C1566.62 21.7299 1567.12 22.5702 1567.53 23.4402C1567.77 23.953 1567.95 24.4893 1568.08 25.0402C1568.3 25.9802 1568.48 26.9401 1568.67 27.8801C1568.68 28.0331 1568.68 28.1871 1568.67 28.3401C1568.67 29.2001 1568.67 30.0501 1568.67 30.9001C1568.62 32.0712 1568.43 33.2323 1568.11 34.3601C1567.92 35.3272 1567.59 36.2591 1567.11 37.1203C1566.43 38.263 1565.69 39.3675 1564.89 40.4299C1564.3 41.2374 1563.58 41.952 1562.78 42.55C1561.55 43.5174 1560.16 44.2499 1558.67 44.7102C1557.9 44.9102 1557.15 45.2202 1556.38 45.4802H1556.28C1554.51 45.6481 1552.73 45.7012 1550.96 45.6399C1548.76 45.4086 1546.63 44.7065 1544.72 43.5803C1543.34 42.6895 1542.07 41.6201 1540.97 40.4001C1539.83 39.1392 1538.92 37.687 1538.28 36.1101C1538 35.3057 1537.77 34.4841 1537.59 33.6501C1537.24 32.4015 1537.1 31.1041 1537.18 29.8103ZM1552.86 40.4802V40.6599C1553.86 40.4799 1554.86 40.3203 1555.86 40.1003C1557.23 39.7222 1558.48 38.999 1559.49 38.0002C1560.62 37.0814 1561.47 35.8657 1561.95 34.49C1562.09 33.8721 1562.3 33.2743 1562.59 32.7102C1562.88 32.1875 1563.02 31.5961 1562.99 31.0002C1563 29.7683 1562.95 28.5366 1562.83 27.3103C1562.83 27.2604 1562.83 27.2098 1562.83 27.1599C1562.61 26.5999 1562.37 26.0399 1562.17 25.4699C1561.74 24.1458 1560.99 22.9451 1560 21.9699C1559.22 21.2231 1558.35 20.5719 1557.41 20.03C1556.24 19.4432 1554.97 19.1028 1553.67 19.03C1552.55 18.9489 1551.41 19.0643 1550.33 19.3703C1549.21 19.6728 1548.16 20.1702 1547.21 20.8401C1545.92 21.7478 1544.85 22.9425 1544.1 24.3303C1543.29 25.8 1542.85 27.4432 1542.81 29.1203C1542.81 29.9801 1542.87 30.8387 1542.99 31.6902C1543.01 32.192 1543.09 32.6892 1543.24 33.1701C1543.56 34.1584 1544 35.1049 1544.54 35.99C1545.31 37.175 1546.31 38.1948 1547.48 38.99C1549.04 40.1116 1550.95 40.6403 1552.86 40.4802Z" fill="white"/>
<path d="M1579.85 33.52V37.83C1579.85 39.61 1579.85 41.3796 1579.85 43.1596C1579.85 43.7296 1579.96 44.3001 1580.02 44.8701C1580.02 45.2701 1579.94 45.4799 1579.51 45.4799C1577.82 45.4799 1576.13 45.4799 1574.44 45.4799C1574.08 45.4799 1574 45.33 1574.02 45.02C1574.08 44.02 1574.13 43.02 1574.18 42.02C1574.18 41.69 1574.18 41.37 1574.18 41.02C1574.18 33.75 1574.18 26.4799 1574.18 19.2099C1574.18 17.7299 1574.07 16.2597 1573.98 14.7797C1573.98 14.3197 1574.08 14.1599 1574.57 14.1699C1577.57 14.1699 1580.65 14.1699 1583.68 14.1699C1585.35 14.1843 1587 14.5557 1588.52 15.2597C1590.05 16.0469 1591.36 17.2056 1592.33 18.6298C1592.86 19.4427 1593.28 20.3196 1593.59 21.2397C1593.72 21.6721 1593.8 22.1186 1593.83 22.5698C1593.89 22.9298 1593.95 23.2999 1593.99 23.6699C1594.02 23.8553 1594.02 24.0445 1593.99 24.2299C1593.85 25.5896 1593.44 26.908 1592.79 28.1098C1592.06 29.2661 1591.14 30.2823 1590.05 31.1098C1589.52 31.5668 1588.9 31.9075 1588.23 32.1098C1588.15 32.1098 1588.1 32.2698 1588.02 32.3798C1589.29 32.8829 1590.33 33.8468 1590.93 35.08C1591.6 36.25 1592.35 37.3797 1593.04 38.5297C1593.93 40.0097 1594.77 41.5297 1595.7 42.9697C1596.18 43.6458 1596.69 44.2968 1597.23 44.9199C1597.31 45.0575 1597.36 45.2058 1597.39 45.3598C1597.25 45.4073 1597.11 45.4409 1596.97 45.4599H1590.88C1590.74 45.474 1590.6 45.44 1590.48 45.3637C1590.36 45.2874 1590.27 45.1733 1590.23 45.04C1589.84 44.15 1589.47 43.2496 1589 42.4096C1588.32 41.1896 1587.55 40.0298 1586.83 38.8398C1586.34 37.956 1585.81 37.0983 1585.23 36.27C1584.63 35.49 1584.23 34.5198 1583.23 34.0698C1582.16 33.618 1581 33.4296 1579.85 33.52ZM1579.85 19.3896V28.3896C1580.85 28.4396 1581.85 28.5 1582.76 28.52C1583.1 28.4827 1583.43 28.426 1583.76 28.35C1584.34 28.3313 1584.92 28.196 1585.45 27.9521C1585.98 27.7082 1586.46 27.3604 1586.85 26.9296C1587.15 26.6314 1587.42 26.2953 1587.64 25.9296C1588.12 24.9286 1588.21 23.7833 1587.89 22.7197C1587.74 22.1392 1587.47 21.5978 1587.09 21.1318C1586.72 20.6658 1586.25 20.2866 1585.71 20.02C1585.14 19.6899 1584.5 19.4917 1583.84 19.4399C1582.55 19.3299 1581.23 19.3896 1579.88 19.3896H1579.85Z" fill="white"/>
<path d="M1447.1 37.9399C1446.78 38.6999 1446.48 39.3901 1446.21 40.0801C1445.94 40.7701 1445.62 41.7501 1445.32 42.5801L1444.59 44.5C1444.56 44.5771 1444.53 44.6573 1444.52 44.7397C1444.39 45.4397 1444.35 45.4697 1443.66 45.4697C1442 45.4697 1440.35 45.4697 1438.66 45.4697C1438.12 45.4697 1438.08 45.42 1438.35 44.98C1439.18 43.5684 1439.87 42.0819 1440.42 40.54C1440.62 40.02 1440.91 39.5398 1441.13 39.0098C1441.49 38.1798 1441.81 37.3398 1442.13 36.5098C1442.8 34.8764 1443.46 33.2499 1444.13 31.6299C1444.69 30.2999 1445.28 28.9799 1445.81 27.6299C1446.34 26.2799 1446.81 24.9199 1447.35 23.6299C1447.77 22.6299 1448.29 21.6298 1448.73 20.5698C1449.17 19.5098 1449.51 18.6597 1449.88 17.6997C1450.25 16.7397 1450.51 15.9997 1450.88 15.1597C1451.25 14.3197 1451.26 14.2397 1452.26 14.2397C1453.26 14.2397 1454.47 14.2397 1455.58 14.2397C1455.99 14.2397 1456.14 14.4101 1456.26 14.8101C1456.51 15.6667 1456.8 16.5082 1457.15 17.3301C1457.64 18.5201 1458.15 19.7096 1458.69 20.8896C1459 21.5996 1459.34 22.29 1459.69 23C1460.1 23.93 1460.5 24.8701 1460.89 25.8101C1461.52 27.2801 1462.13 28.76 1462.77 30.23C1463.32 31.49 1463.91 32.74 1464.47 34C1465.03 35.26 1465.63 36.6998 1466.22 38.0498C1466.9 39.6298 1467.56 41.2098 1468.28 42.7798C1468.65 43.5756 1469.06 44.3472 1469.53 45.0898C1469.78 45.4898 1469.61 45.5098 1469.29 45.5098C1468.42 45.5098 1467.55 45.5098 1466.68 45.5098H1464.07C1463.93 45.5277 1463.79 45.4953 1463.67 45.4185C1463.55 45.3416 1463.46 45.2253 1463.42 45.0898C1462.87 43.6598 1462.29 42.2498 1461.72 40.8398C1461.36 39.9798 1461.02 39.12 1460.63 38.27C1460.57 38.1788 1460.49 38.1016 1460.4 38.0444C1460.31 37.9873 1460.21 37.9516 1460.1 37.9399C1455.89 37.9399 1451.67 37.9399 1447.46 37.9399C1447.34 37.9327 1447.22 37.9327 1447.1 37.9399ZM1458.17 32.6899C1457.7 31.5499 1457.26 30.4699 1456.81 29.3999C1456.36 28.3299 1455.81 27.2296 1455.37 26.1396C1454.81 24.8696 1454.28 23.5901 1453.74 22.3101C1453.74 22.2401 1453.59 22.1299 1453.55 22.1499C1453.45 22.1838 1453.37 22.2511 1453.32 22.3398C1453.06 23.0098 1452.83 23.6898 1452.56 24.3398C1452.29 24.9898 1451.89 25.9498 1451.56 26.7598C1451.4 27.1498 1451.28 27.57 1451.13 27.96C1450.6 29.28 1450.06 30.6 1449.54 31.96C1449.44 32.19 1449.38 32.43 1449.29 32.71L1458.17 32.6899Z" fill="white"/>
<path d="M1622.78 37.8999H1621.78C1617.78 37.8999 1613.78 37.8999 1609.85 37.8999C1609.7 37.8848 1609.54 37.9244 1609.41 38.0122C1609.28 38.1 1609.19 38.2303 1609.15 38.3799C1608.66 39.5899 1608.15 40.7998 1607.7 42.0098C1607.53 42.4698 1607.42 43.0099 1607.26 43.4199C1607.03 44.0599 1606.79 44.6901 1606.53 45.3101C1606.49 45.3667 1606.43 45.4121 1606.37 45.4434C1606.3 45.4746 1606.23 45.4905 1606.16 45.4897C1604.4 45.4897 1602.65 45.4897 1600.89 45.4897C1600.53 45.4897 1600.39 45.2497 1600.59 44.9697C1601.54 43.5173 1602.28 41.9431 1602.8 40.29C1603.01 39.77 1603.2 39.24 1603.42 38.73C1603.97 37.51 1604.56 36.2998 1605.08 35.0698C1605.54 33.9998 1605.92 32.8898 1606.37 31.8198C1606.82 30.7498 1607.23 29.9099 1607.63 28.9399C1608.03 27.9699 1608.36 27.0799 1608.72 26.1499C1608.94 25.5799 1609.15 25.0097 1609.37 24.4497C1609.7 23.6397 1610.02 22.8398 1610.37 22.0498C1610.62 21.4798 1610.91 20.9201 1611.15 20.3501C1611.68 19.1101 1612.2 17.8799 1612.69 16.6299C1612.95 15.9599 1613.11 15.2498 1613.35 14.5698C1613.39 14.4874 1613.45 14.4154 1613.52 14.3584C1613.6 14.3014 1613.68 14.2606 1613.77 14.2397C1615.19 14.2397 1616.6 14.2397 1618.02 14.2397C1618.55 14.2397 1618.5 14.7 1618.62 14.98C1619.08 16.1 1619.46 17.2599 1619.91 18.3799C1620.27 19.2699 1620.67 20.1498 1621.07 21.0298C1621.47 21.9098 1621.95 22.8598 1622.35 23.7998C1622.88 25.0698 1623.35 26.3601 1623.88 27.6201C1624.41 28.8801 1624.88 29.89 1625.39 31.02C1626.02 32.4534 1626.65 33.8834 1627.26 35.3101C1627.69 36.3101 1628.13 37.2497 1628.56 38.2197C1628.8 38.7797 1629.03 39.3396 1629.27 39.8896C1629.61 40.6496 1629.95 41.3999 1630.27 42.1499C1630.73 43.1499 1631.2 44.07 1631.67 45.02C1631.84 45.38 1631.67 45.5 1631.35 45.5C1629.61 45.5 1627.87 45.5 1626.13 45.5C1625.52 45.5 1625.46 44.8697 1625.28 44.4297C1624.75 43.1097 1624.28 41.7897 1623.72 40.4297C1623.45 39.6297 1623.13 38.7799 1622.78 37.8999ZM1615.78 21.8501L1611.49 32.6797H1620.49C1618.91 29.0497 1617.38 25.5001 1615.81 21.8501H1615.78Z" fill="white"/>
<path d="M1425.67 39.2397C1425.67 40.8597 1425.67 42.48 1425.67 44.1C1425.66 44.3034 1425.7 44.5053 1425.79 44.6899C1426.07 45.2099 1425.94 45.4597 1425.32 45.4697C1424.32 45.4697 1423.32 45.4697 1422.32 45.4697C1421.62 45.4697 1420.92 45.4697 1420.22 45.4697C1419.91 45.4697 1419.79 45.37 1419.8 45.06C1419.86 43.92 1419.91 42.7799 1419.96 41.6499C1419.96 41.2899 1419.96 40.9298 1419.96 40.5698C1419.96 33.5698 1419.96 26.6499 1419.96 19.6899C1419.96 18.0599 1419.85 16.43 1419.76 14.79C1419.76 14.34 1419.86 14.1799 1420.35 14.1899C1423.08 14.1899 1425.81 14.1899 1428.54 14.1899C1429.74 14.2231 1430.93 14.3568 1432.1 14.5898C1433.43 14.812 1434.69 15.3166 1435.81 16.0698C1437.33 16.9904 1438.54 18.3595 1439.25 19.9897C1439.68 20.9119 1439.91 21.9127 1439.94 22.9296C1439.94 23.2896 1440.12 23.67 1440.1 24.02C1440.06 26.5729 1439.03 29.0108 1437.23 30.8198C1436.21 31.8234 1434.99 32.5887 1433.64 33.06C1432.82 33.33 1431.95 33.4599 1431.11 33.6899C1429.7 33.9263 1428.27 33.9833 1426.85 33.8598C1426.63 33.8508 1426.42 33.807 1426.22 33.7299C1425.77 33.5999 1425.58 33.7299 1425.58 34.1899C1425.58 35.8599 1425.58 37.5299 1425.58 39.1899L1425.67 39.2397ZM1425.67 28.58C1426.22 28.63 1426.74 28.6997 1427.27 28.7197C1427.8 28.7397 1428.46 28.7197 1429.06 28.7197C1430.53 28.7842 1431.96 28.275 1433.06 27.2998C1433.76 26.6736 1434.2 25.8181 1434.32 24.8896C1434.37 24.0861 1434.31 23.2801 1434.16 22.4897C1434.01 21.1897 1432.96 20.5697 1432 20.0297C1431.07 19.5725 1430.04 19.3525 1429 19.3896C1428 19.3896 1427.09 19.3896 1426.14 19.3896C1425.99 19.3797 1425.84 19.3797 1425.69 19.3896L1425.67 28.58Z" fill="white"/>
<path d="M1553.02 1C1553.14 1.4302 1553.24 1.86777 1553.31 2.31006C1553.41 3.42006 1553.45 4.53965 1553.56 5.63965C1553.67 6.73965 1553.8 7.63984 1553.92 8.58984C1553.97 8.91984 1553.92 9.1699 1553.49 9.1499C1553.06 9.1299 1552.84 9.1499 1552.49 9.1499C1551.95 9.1499 1551.8 8.93969 1551.94 8.42969C1552.01 8.14038 1552.07 7.84647 1552.1 7.5498C1552.23 6.3998 1552.36 5.24984 1552.48 4.08984C1552.48 3.88984 1552.48 3.68998 1552.48 3.47998C1552.55 2.77998 1552.62 2.07012 1552.7 1.37012C1552.77 1.27012 1552.88 1.19 1553.02 1Z" fill="white"/>
<path d="M1550.56 9.10986L1548.56 9.6001C1548.4 8.6001 1548.26 7.66977 1548.09 6.75977C1548 6.30977 1547.85 5.86969 1547.75 5.42969C1547.65 4.98969 1547.51 4.32979 1547.39 3.77979C1547.32 3.493 1547.26 3.20247 1547.22 2.90967C1547.22 2.73013 1547.29 2.55864 1547.42 2.42969C1548.79 4.50969 1549.49 6.82986 1550.56 9.10986Z" fill="white"/>
<path d="M1555.33 9.10986L1558.19 2.42969H1558.35C1558.42 2.55969 1558.57 2.70006 1558.55 2.81006C1558.39 3.69006 1558.18 4.55969 1558 5.42969C1557.92 5.81969 1557.85 6.20986 1557.78 6.60986C1557.62 7.60986 1557.47 8.51986 1557.3 9.60986L1555.33 9.10986Z" fill="white"/>
<path d="M1554.79 11.3303C1554.79 11.1828 1554.82 11.0366 1554.88 10.9006C1554.93 10.7646 1555.02 10.6411 1555.12 10.5378C1555.23 10.4344 1555.35 10.3531 1555.49 10.2985C1555.63 10.2439 1555.77 10.2172 1555.92 10.2199C1556.19 10.2625 1556.43 10.395 1556.61 10.5949C1556.79 10.7948 1556.9 11.0504 1556.92 11.32C1556.93 11.5979 1556.83 11.8691 1556.65 12.0749C1556.46 12.2807 1556.2 12.4046 1555.92 12.4201C1555.27 12.3801 1554.69 12.0603 1554.79 11.3303Z" fill="white"/>
<path d="M1551.92 11.0001C1551.91 10.8653 1551.92 10.7289 1551.97 10.6011C1552.01 10.4734 1552.09 10.3571 1552.18 10.2613C1552.28 10.1655 1552.39 10.0927 1552.52 10.0474C1552.65 10.0022 1552.78 9.98593 1552.92 10.0001C1553.18 10.0001 1553.44 10.1055 1553.63 10.293C1553.81 10.4806 1553.92 10.7349 1553.92 11.0001C1553.92 11.1423 1553.9 11.2835 1553.84 11.4156C1553.79 11.5477 1553.71 11.6681 1553.61 11.7696C1553.51 11.8711 1553.4 11.9514 1553.26 12.0064C1553.13 12.0614 1552.99 12.0899 1552.85 12.0899C1552.72 12.0811 1552.59 12.0458 1552.47 11.9859C1552.35 11.926 1552.24 11.8429 1552.15 11.7413C1552.07 11.6397 1552 11.5214 1551.96 11.3941C1551.92 11.2668 1551.91 11.1331 1551.92 11.0001Z" fill="white"/>
<path d="M1550.99 11.3198C1551 11.5964 1550.9 11.8647 1550.71 12.0693C1550.52 12.274 1550.27 12.3995 1549.99 12.4199C1549.85 12.4205 1549.71 12.3917 1549.59 12.3359C1549.46 12.2802 1549.34 12.1983 1549.25 12.0957C1549.15 11.9931 1549.08 11.8721 1549.04 11.7402C1548.99 11.6083 1548.98 11.4688 1548.99 11.3301C1548.99 11.0544 1549.09 10.7888 1549.28 10.584C1549.46 10.3792 1549.72 10.2493 1549.99 10.2197C1550.26 10.2623 1550.5 10.3948 1550.68 10.5947C1550.86 10.7946 1550.97 11.0502 1550.99 11.3198Z" fill="white"/>
<path fill-rule="evenodd" clip-rule="evenodd" d="M8 114.5V177.5H167V114.5H8ZM87.51 174.353C43.1652 174.353 11.1868 161.447 11.1868 146C11.1868 130.553 43.1953 117.647 87.51 117.647C131.825 117.647 163.813 130.553 163.813 146C163.813 161.447 131.855 174.353 87.51 174.353Z" fill="white"/>
<path d="M81.8579 155.451C82.3486 156.168 82.9128 156.834 83.5415 157.436H66.3347C66.1107 156.323 65.6344 155.274 64.9418 154.369L60.2718 147.519V155.461C60.2148 156.141 60.332 156.824 60.6125 157.447H46.2819C46.5624 156.824 46.6796 156.141 46.6226 155.461V136.599C46.6796 135.919 46.5624 135.236 46.2819 134.613H60.6125C60.332 135.236 60.2148 135.919 60.2718 136.599V144.819C60.2718 144.819 64.8516 139.051 65.9038 137.701C66.6955 136.708 67.6776 135.259 67.6776 134.593H82.6296C81.4685 135.446 80.4271 136.447 79.533 137.572L74.0613 144.025C74.0613 144.025 80.946 154.15 81.8579 155.451ZM86.3676 155.451C86.4246 156.131 86.3074 156.814 86.0268 157.436H113.686V151.093C113.053 151.357 112.367 151.469 111.682 151.42H100.017V148.442H111.201V143.637H100.017V140.659H111.662C112.345 140.613 113.029 140.718 113.666 140.967V134.643H86.0068C86.277 135.241 86.4006 135.894 86.3676 136.549V155.451ZM152.018 155.451C152.245 156.182 152.624 156.859 153.13 157.436H138.098C138.116 156.748 137.961 156.066 137.647 155.451C137.647 155.451 137.417 154.925 137.096 154.15L136.956 153.823H128.347L128.207 154.18C128.207 154.18 127.957 154.816 127.726 155.481C127.446 156.105 127.316 156.784 127.345 157.467H115.53C116.019 156.883 116.384 156.208 116.602 155.481L123.687 136.569C124 135.955 124.142 135.27 124.098 134.583H144.091C144.014 135.274 144.165 135.971 144.522 136.569C145.113 137.998 151.517 154.18 152.018 155.451ZM135.112 148.998L133.017 143.707C132.822 143.221 132.667 142.719 132.556 142.208C132.467 142.719 132.329 143.221 132.145 143.707C132.075 143.935 131.143 146.248 130.141 148.998H135.112ZM39.4873 134.583H23.904C24.1845 135.206 24.3017 135.889 24.2447 136.569V155.431C24.3017 156.111 24.1845 156.794 23.904 157.417H39.4873C39.2068 156.794 39.0896 156.111 39.1466 155.431V136.569C39.0896 135.889 39.2068 135.206 39.4873 134.583ZM147.228 136.39C147.217 136.005 147.284 135.622 147.424 135.263C147.565 134.904 147.776 134.576 148.045 134.299C148.315 134.022 148.638 133.801 148.995 133.649C149.351 133.496 149.735 133.415 150.124 133.412H150.334C151.13 133.388 151.903 133.678 152.484 134.217C153.064 134.757 153.405 135.503 153.431 136.291V136.4C153.411 137.192 153.085 137.946 152.52 138.506C151.955 139.066 151.195 139.389 150.396 139.41C149.596 139.43 148.82 139.146 148.227 138.615C147.633 138.085 147.269 137.349 147.208 136.559C147.226 136.505 147.233 136.447 147.228 136.39ZM147.849 136.39C147.837 136.879 147.973 137.361 148.238 137.774C148.504 138.186 148.888 138.511 149.341 138.707C149.794 138.903 150.295 138.959 150.781 138.871C151.267 138.783 151.716 138.553 152.069 138.212C152.423 137.87 152.666 137.431 152.767 136.952C152.867 136.473 152.822 135.975 152.636 135.522C152.449 135.068 152.131 134.681 151.721 134.407C151.311 134.134 150.828 133.988 150.334 133.988C149.706 133.958 149.091 134.177 148.625 134.595C148.159 135.014 147.88 135.599 147.849 136.221V136.39ZM149.713 138.177H149.172V134.563H150.555C150.709 134.565 150.861 134.596 151.003 134.656C151.145 134.715 151.273 134.802 151.381 134.91C151.489 135.019 151.574 135.148 151.632 135.29C151.69 135.431 151.719 135.583 151.717 135.735C151.714 135.953 151.651 136.167 151.534 136.352C151.418 136.538 151.252 136.688 151.056 136.787L151.858 138.177H151.246L150.515 136.896H149.713V138.177ZM149.713 136.39H150.465C150.549 136.4 150.635 136.392 150.717 136.367C150.799 136.342 150.874 136.301 150.939 136.246C151.004 136.191 151.057 136.124 151.094 136.048C151.131 135.972 151.153 135.889 151.156 135.804C151.162 135.72 151.15 135.635 151.121 135.555C151.092 135.475 151.048 135.402 150.989 135.34C150.931 135.278 150.861 135.228 150.783 135.193C150.705 135.159 150.62 135.14 150.535 135.139H149.713V136.39Z" fill="white"/>
<path d="M395.607 152.259C399.855 152.056 403.973 152.593 408.231 151.752C407.379 152.988 406.648 154.102 405.856 155.175C405.635 155.334 405.365 155.406 405.095 155.378H374.478C374.38 155.394 374.28 155.389 374.184 155.363C374.088 155.337 373.998 155.291 373.921 155.228C373.844 155.165 373.78 155.087 373.735 154.997C373.689 154.908 373.663 154.81 373.657 154.71C373.166 152.573 372.655 150.446 372.124 148.309C372.064 148.066 371.994 147.813 371.904 147.448C370.481 148.461 368.748 148.876 368.137 150.8C367.666 152.279 366.714 153.606 366.834 155.317H356.225C356.896 154.173 357.617 153.069 358.228 151.884C358.94 150.486 359.541 149.028 360.232 147.59C361.374 145.058 362.546 142.526 363.648 139.964C364.089 138.951 364.38 137.807 364.781 136.591H375.32C373.096 138.901 372.405 141.959 371.102 144.694C371.323 144.572 371.533 144.46 371.743 144.329C374.478 142.607 377.213 140.896 379.939 139.154C380.978 138.681 381.796 137.821 382.223 136.753C382.277 136.678 382.348 136.616 382.429 136.572C382.511 136.528 382.601 136.503 382.694 136.5H390.608C390.608 136.581 390.608 136.652 390.558 136.652C387.953 137.523 385.729 139.113 383.365 140.46C382.593 140.896 381.812 141.351 381.071 141.848C380.971 141.923 380.891 142.023 380.841 142.138C380.79 142.254 380.769 142.38 380.78 142.506C381.916 146.037 383.068 149.568 384.237 153.099C384.432 153.564 384.652 154.017 384.898 154.456C385.349 153.666 385.769 153.059 386.07 152.431C388.023 148.167 389.977 143.893 391.871 139.599C392.238 138.608 392.539 137.593 392.772 136.561H413.891C413.611 137.746 413.32 138.91 413.03 140.106C409.343 139.346 405.676 139.782 402.009 139.65C401.79 139.627 401.57 139.682 401.387 139.806C401.204 139.93 401.07 140.115 401.007 140.329C400.507 141.503 399.946 142.668 399.294 144.086L410.365 143.853L408.652 147.641C405.315 146.851 401.959 147.307 398.633 147.165C398.415 147.141 398.196 147.195 398.013 147.317C397.83 147.439 397.695 147.621 397.631 147.833C396.97 149.291 396.359 150.689 395.607 152.259Z" fill="white"/>
<path d="M511.341 155.348C511.161 155.348 510.941 155.348 510.71 155.348C507.705 155.348 504.699 155.348 501.744 155.348C501.102 155.348 500.922 155.135 500.872 154.517C500.702 152.279 500.451 150.041 500.271 147.803C500.271 147.286 500.06 147.104 499.53 147.104C497.355 147.104 497.355 147.104 496.474 149.039C495.933 150.234 495.362 151.418 494.891 152.654C494.607 153.511 494.369 154.384 494.18 155.267H483.67C483.67 155.267 483.67 155.166 483.67 155.145C484.525 153.9 485.311 152.609 486.025 151.277C487.838 147.428 489.561 143.539 491.294 139.65C491.586 139.187 491.779 138.668 491.86 138.125C491.941 137.583 491.909 137.029 491.765 136.5H492.637C499.289 136.5 505.931 136.5 512.584 136.5C513.578 136.505 514.568 136.638 515.529 136.895C515.817 136.927 516.092 137.028 516.333 137.191C516.574 137.353 516.772 137.572 516.912 137.828C517.051 138.085 517.128 138.371 517.135 138.663C517.142 138.955 517.079 139.245 516.952 139.508C516.196 141.479 515.319 143.4 514.327 145.261C513.616 146.567 512.253 146.932 510.84 147.054L509.839 147.145L511.341 155.348ZM498.808 143.975C500.962 143.975 502.996 143.975 505.02 143.975C505.37 143.975 505.791 143.488 506.022 143.124C506.42 142.372 506.775 141.598 507.084 140.804C507.434 139.994 507.294 139.792 506.432 139.792C504.716 139.792 503.003 139.792 501.293 139.792C501.092 139.792 500.772 139.873 500.702 140.015C500.04 141.25 499.449 142.577 498.808 143.975Z" fill="white"/>
<path d="M458.644 155.358H448.095C450.269 152.988 451.02 150 452.463 147.256C450.128 147.256 447.964 147.256 445.79 147.256C445.61 147.256 445.369 147.519 445.279 147.712C444.478 149.444 443.666 151.175 442.935 152.937C442.676 153.718 442.475 154.517 442.334 155.328H431.844C434.91 150.791 436.563 145.544 438.968 140.673C439.717 139.456 440.119 138.054 440.13 136.622H450.99C448.896 138.728 448.235 141.493 446.862 144.086H448.806C450.289 144.086 451.811 144.086 453.254 144.086C453.405 144.078 453.553 144.038 453.688 143.968C453.822 143.898 453.941 143.8 454.036 143.681C454.797 142.05 455.548 140.399 456.22 138.728C456.427 138.047 456.574 137.349 456.66 136.642H467.14C464.134 141.361 462.301 146.77 459.876 151.834C459.399 152.983 458.987 154.16 458.644 155.358Z" fill="white"/>
<path d="M512.353 155.267C512.664 154.001 512.954 152.805 513.265 151.519C515.549 152.532 517.894 152.127 520.198 152.188C522.202 152.188 524.285 152.188 526.329 152.188C526.912 152.091 527.446 151.799 527.844 151.358C528.242 150.916 528.481 150.353 528.523 149.757C528.494 149.668 528.444 149.586 528.378 149.519C528.312 149.453 528.231 149.402 528.143 149.372C527.867 149.309 527.583 149.285 527.301 149.301C524.386 149.301 521.47 149.301 518.565 149.301C517.886 149.284 517.212 149.175 516.561 148.977C516.364 148.937 516.177 148.857 516.012 148.741C515.847 148.625 515.707 148.476 515.601 148.303C515.495 148.13 515.425 147.938 515.395 147.737C515.366 147.536 515.377 147.33 515.429 147.134C515.541 146.527 515.722 145.936 515.97 145.372C516.571 143.944 517.222 142.536 517.854 141.128C518.418 139.734 519.394 138.55 520.649 137.738C521.905 136.925 523.378 136.525 524.866 136.591C529.986 136.541 535.095 136.591 540.205 136.591H543C542.579 137.867 542.199 139.062 541.818 140.207C537.5 139.295 533.202 139.822 528.924 139.751C528.377 139.74 527.848 139.946 527.449 140.324C527.05 140.703 526.813 141.224 526.79 141.776C526.812 141.887 526.861 141.991 526.933 142.077C527.005 142.164 527.097 142.231 527.201 142.273C527.632 142.337 528.068 142.361 528.503 142.343C531.308 142.343 534.124 142.394 536.929 142.485C537.566 142.534 538.189 142.706 538.762 142.992C539.17 143.145 539.503 143.453 539.69 143.85C539.877 144.247 539.903 144.702 539.764 145.119C539.531 145.855 539.254 146.575 538.932 147.276C538.452 148.38 537.931 149.474 537.44 150.588C536.914 152.023 535.953 153.254 534.693 154.104C533.433 154.953 531.94 155.378 530.427 155.317C524.546 155.398 518.665 155.317 512.784 155.317C512.639 155.312 512.495 155.296 512.353 155.267Z" fill="white"/>
<path d="M362.296 136.682C361.995 137.938 361.725 139.113 361.464 140.237C357.066 139.356 352.688 139.863 348.34 139.802C347.828 139.887 347.36 140.144 347.011 140.532C346.662 140.92 346.453 141.416 346.417 141.939C346.417 142.091 346.687 142.313 346.857 142.344C347.285 142.406 347.718 142.433 348.15 142.425C350.865 142.425 353.57 142.425 356.275 142.526C356.94 142.558 357.595 142.709 358.208 142.972C358.437 143.04 358.65 143.155 358.833 143.31C359.017 143.464 359.167 143.655 359.275 143.87C359.383 144.085 359.446 144.321 359.461 144.562C359.475 144.802 359.441 145.044 359.361 145.271C359.145 145.987 358.874 146.684 358.549 147.357C358.108 148.37 357.547 149.383 357.177 150.395C356.657 151.946 355.648 153.281 354.305 154.196C352.962 155.111 351.359 155.555 349.743 155.459C343.992 155.459 338.242 155.459 332.491 155.459C332.326 155.448 332.162 155.427 332 155.398C332.311 154.132 332.601 152.927 332.882 151.742C336.729 152.755 340.596 152.097 344.423 152.289C344.683 152.289 344.934 152.289 345.194 152.289C347.469 152.289 347.198 152.107 348.11 150.183C348.32 149.707 348.11 149.504 347.669 149.453C347.39 149.416 347.109 149.4 346.827 149.403C344.012 149.403 341.207 149.403 338.392 149.352C337.627 149.337 336.869 149.214 336.138 148.987C335.768 148.877 335.456 148.624 335.268 148.283C335.081 147.942 335.033 147.541 335.136 147.165C335.169 146.883 335.24 146.607 335.346 146.344C336.258 144.319 337.069 142.192 338.121 140.268C338.728 139.144 339.635 138.214 340.738 137.586C341.842 136.957 343.098 136.655 344.363 136.713C350.224 136.632 356.074 136.713 361.925 136.713C362.048 136.695 362.172 136.685 362.296 136.682Z" fill="white"/>
<path d="M459.866 155.389C462.872 151.013 464.405 146.051 466.689 141.453C466.95 140.916 467.18 140.369 467.41 139.822C467.654 139.312 467.858 138.784 468.022 138.242C468.139 137.701 468.223 137.153 468.272 136.601H489.531C489.261 137.786 488.99 138.931 488.72 140.126C485.093 139.376 481.486 139.832 477.9 139.691C477.605 139.637 477.301 139.698 477.048 139.862C476.796 140.025 476.613 140.278 476.537 140.571C476.096 141.696 475.535 142.779 474.954 144.136L485.975 143.863C485.484 144.957 484.973 146.203 484.352 147.418C484.302 147.54 483.961 147.6 483.781 147.57C480.505 146.891 477.198 147.347 473.912 147.235C473.815 147.235 473.719 147.258 473.632 147.302C473.545 147.346 473.47 147.41 473.411 147.489C472.69 149.018 471.999 150.527 471.237 152.249C475.475 152.067 479.593 152.583 483.861 151.743C483.33 152.436 482.845 153.163 482.408 153.92C482.162 154.446 481.753 154.878 481.244 155.15C480.735 155.422 480.152 155.52 479.583 155.429C473.321 155.348 467.06 155.429 460.788 155.429L459.866 155.389Z" fill="white"/>
<path d="M437.786 136.682C437.425 138.131 437.064 139.548 436.704 140.997C433.347 140.045 429.991 140.592 426.685 140.45C426.261 140.419 425.839 140.525 425.479 140.753C425.119 140.98 424.839 141.318 424.681 141.716C423.429 144.511 422.157 147.306 420.904 150.112C420.413 151.195 420.614 151.499 421.806 151.499C425.453 151.68 429.109 151.452 432.706 150.821C432.609 151.04 432.499 151.253 432.376 151.459C431.824 152.168 431.321 152.916 430.873 153.697C430.602 154.311 430.138 154.818 429.552 155.136C428.967 155.455 428.293 155.569 427.637 155.459C423.239 155.328 418.841 155.46 414.442 155.389C413.473 155.386 412.509 155.249 411.577 154.983C411.007 154.839 410.516 154.474 410.212 153.965C409.907 153.456 409.815 152.847 409.954 152.269C410.065 151.555 410.264 150.857 410.545 150.193C411.801 147.337 413.087 144.494 414.402 141.665C415.022 140.154 416.073 138.865 417.423 137.962C418.773 137.06 420.358 136.586 421.976 136.601C427.166 136.5 432.355 136.601 437.555 136.601C437.633 136.624 437.71 136.651 437.786 136.682Z" fill="white"/>
<path fill-rule="evenodd" clip-rule="evenodd" d="M717 128.073H764.222C767.18 123.489 771.25 119.707 776.063 117.069C780.94 114.4 786.424 113 792 113C797.576 113 803.06 114.4 807.937 117.069C812.74 119.684 816.8 123.447 819.748 128.013H867L862.324 132.63H822.368C823.191 134.384 823.816 136.223 824.232 138.113H856.943L852.267 142.739H824.958C825.038 143.933 825.079 144.828 825.079 145.445C825.079 146.062 825.079 146.967 824.958 148.161H846.775L842.089 152.778H824.192C823.802 154.672 823.19 156.515 822.368 158.27H836.476L831.74 162.886H819.748C816.804 167.474 812.744 171.26 807.937 173.9C803.067 176.588 797.58 178 792 178C786.42 178 780.933 176.588 776.063 173.9C771.251 171.248 767.182 167.456 764.222 162.867H752.26L747.605 158.25H761.713C760.887 156.505 760.265 154.672 759.859 152.788H742.032L737.296 148.171H759.113C759.032 146.977 758.992 146.072 758.992 145.455C758.992 144.838 758.992 143.943 759.113 142.749H731.854L727.118 138.122H759.889C760.305 136.234 760.927 134.397 761.743 132.64H721.676L717 128.073ZM766.016 134.68C764.546 138.104 763.789 141.785 763.789 145.505C763.789 149.224 764.546 152.905 766.016 156.329C768.838 163.055 774.244 168.404 781.051 171.204C784.513 172.668 788.239 173.423 792.005 173.423C795.771 173.423 799.497 172.668 802.959 171.204C809.767 168.402 815.176 163.055 818.004 156.329C819.487 152.908 820.251 149.226 820.251 145.505C820.251 141.783 819.487 138.101 818.004 134.68C815.17 127.965 809.762 122.629 802.959 119.835C799.496 118.378 795.77 117.626 792.005 117.626C788.24 117.626 784.514 118.378 781.051 119.835C777.694 121.241 774.639 123.267 772.052 125.805C769.479 128.351 767.429 131.365 766.016 134.68ZM769.482 152.837H772.405L772.324 141.893L775.861 152.837H779.106L782.583 141.973V152.857H785.707V138.172H781.313L777.544 149.862L773.695 138.182H769.482V152.837ZM789.063 152.837H792.136V138.172H789.113L789.063 152.837ZM795.522 152.837H798.545V142.271L804.471 152.837H808.068V138.172H805.146V148.798L799.19 138.172H795.532L795.522 152.837ZM811.444 152.837H814.467V138.172H811.444V152.837Z" fill="white"/>
<path d="M1070.99 113C1063.69 112.995 1056.55 115.194 1050.54 119.303C1044.53 123.411 1039.92 129.235 1037.33 136C1034.74 142.765 1034.3 150.15 1036.05 157.172C1037.81 164.194 1041.68 170.52 1047.16 175.308C1048.27 174.372 1049.57 173.691 1050.97 173.315C1053.54 172.617 1055.34 172.517 1058.02 171.979C1057.91 176.234 1057.82 179.951 1057.78 181.814C1058.94 182.266 1060.13 182.658 1061.34 182.99C1060.49 175.156 1060.05 167.284 1060.03 159.405V156.305C1060.21 156.398 1060.36 156.533 1060.48 156.698C1060.59 156.863 1060.66 157.053 1060.69 157.252L1061.42 171.202C1064.3 170.315 1064.99 168.821 1065.23 167.545C1065.38 166.903 1065.73 166.327 1066.25 165.911C1066.76 165.495 1067.4 165.263 1068.06 165.253C1068.36 165.25 1068.66 165.287 1068.95 165.363C1069.61 165.526 1070.28 165.61 1070.96 165.612C1071.72 165.56 1072.46 165.335 1073.11 164.955C1073.65 164.678 1074.12 164.279 1074.47 163.789C1074.24 163.957 1073.99 164.11 1073.74 164.247C1072.91 164.714 1071.98 164.959 1071.03 164.959C1070.08 164.959 1069.14 164.714 1068.31 164.247C1065.73 162.642 1063.66 160.345 1062.35 157.621C1060.9 154.552 1060.91 149.301 1060.92 148.524C1060.93 148.322 1061.01 148.129 1061.14 147.973C1061.27 147.816 1061.45 147.702 1061.64 147.646C1063.23 147.486 1064.84 147.608 1066.38 148.005C1067.17 148.352 1067.86 148.884 1068.4 149.554C1068.93 150.224 1069.29 151.012 1069.45 151.851C1069.45 151.881 1069.46 151.908 1069.48 151.929C1069.5 151.949 1069.53 151.961 1069.56 151.961C1069.58 151.961 1069.59 151.958 1069.6 151.953C1069.62 151.947 1069.63 151.939 1069.64 151.928C1069.65 151.918 1069.65 151.906 1069.66 151.893C1069.66 151.88 1069.66 151.865 1069.66 151.851C1069.66 150.942 1069.41 150.05 1068.93 149.274C1068.45 148.499 1067.76 147.869 1066.95 147.457C1065.88 146.977 1064.72 146.732 1063.55 146.74C1063.9 146.164 1064.07 145.497 1064.03 144.826C1064.03 144.826 1064.03 144.757 1064.03 144.737C1064.03 144.73 1064.04 144.725 1064.05 144.721C1064.06 144.718 1064.07 144.716 1064.08 144.716C1064.09 144.716 1064.1 144.718 1064.1 144.721C1064.11 144.725 1064.12 144.73 1064.13 144.737C1064.46 145.174 1064.91 145.498 1065.44 145.662C1065.96 145.827 1066.52 145.823 1067.05 145.653C1067.92 145.205 1068.29 143.85 1067.99 142.495C1067.99 142.495 1067.99 142.425 1067.99 142.405C1068.01 142.395 1068.02 142.39 1068.04 142.39C1068.06 142.39 1068.08 142.395 1068.09 142.405C1068.59 143.154 1069.36 143.68 1070.24 143.867C1071.12 144.054 1072.04 143.886 1072.8 143.402C1073.21 143.145 1073.55 142.805 1073.81 142.405C1073.82 142.395 1073.84 142.39 1073.86 142.39C1073.88 142.39 1073.89 142.395 1073.91 142.405C1073.92 142.434 1073.92 142.466 1073.91 142.495C1073.61 143.85 1073.91 145.185 1074.86 145.653C1075.38 145.836 1075.94 145.846 1076.47 145.681C1077 145.515 1077.46 145.184 1077.77 144.737C1077.78 144.73 1077.79 144.725 1077.8 144.721C1077.81 144.718 1077.82 144.716 1077.82 144.716C1077.83 144.716 1077.84 144.718 1077.85 144.721C1077.86 144.725 1077.87 144.73 1077.87 144.737V144.826C1077.83 145.495 1078 146.162 1078.34 146.74C1077.17 146.732 1076.01 146.977 1074.95 147.457C1074.12 147.858 1073.42 148.48 1072.93 149.252C1072.43 150.025 1072.17 150.918 1072.16 151.832C1072.16 151.858 1072.17 151.883 1072.19 151.902C1072.21 151.921 1072.23 151.931 1072.26 151.931C1072.29 151.931 1072.31 151.921 1072.33 151.903C1072.35 151.884 1072.37 151.859 1072.37 151.832C1072.52 150.997 1072.88 150.212 1073.4 149.542C1073.93 148.873 1074.61 148.339 1075.39 147.985C1076.93 147.583 1078.53 147.461 1080.12 147.626C1080.31 147.683 1080.48 147.799 1080.59 147.957C1080.71 148.115 1080.77 148.307 1080.77 148.504C1080.77 149.739 1080.77 154.572 1079.32 157.721C1078.5 159.357 1077.39 160.837 1076.04 162.095V164.088C1076.07 165.215 1076.16 166.34 1076.32 167.456C1076.54 168.871 1077.4 170.385 1080.26 171.213L1081 157.262C1081.02 157.056 1081.09 156.858 1081.21 156.684C1081.32 156.511 1081.48 156.368 1081.66 156.266V159.385C1081.66 163.749 1081.37 174.68 1080.35 183C1081.56 182.673 1082.75 182.28 1083.91 181.825C1083.91 179.951 1083.78 176.255 1083.67 171.96C1086.36 172.498 1087.93 172.617 1090.49 173.325C1091.96 173.724 1093.31 174.458 1094.43 175.467C1099.95 170.694 1103.87 164.366 1105.66 157.329C1107.45 150.292 1107.02 142.882 1104.44 136.09C1101.86 129.298 1097.25 123.448 1091.22 119.324C1085.19 115.199 1078.03 112.997 1070.7 113.01M1070.7 141.658C1070.37 141.658 1070.06 141.562 1069.79 141.384C1069.52 141.206 1069.31 140.952 1069.18 140.655C1069.06 140.358 1069.03 140.032 1069.09 139.717C1069.15 139.402 1069.31 139.112 1069.54 138.885C1069.77 138.658 1070.06 138.504 1070.38 138.441C1070.7 138.378 1071.03 138.41 1071.33 138.533C1071.63 138.656 1071.88 138.864 1072.06 139.131C1072.24 139.398 1072.34 139.713 1072.34 140.034C1072.34 140.465 1072.17 140.877 1071.86 141.182C1071.55 141.487 1071.13 141.658 1070.7 141.658ZM1091.26 151.134C1091.21 151.917 1091.05 152.689 1090.78 153.426C1090.61 153.857 1090.41 154.273 1090.18 154.671L1090.01 154.921C1089.67 155.425 1089.23 155.85 1088.7 156.166L1088.44 156.316C1088.26 156.413 1088.08 156.496 1087.89 156.565C1087.59 156.665 1087.29 156.735 1086.98 156.774C1086.78 156.774 1086.58 156.774 1086.38 156.774C1085.96 156.76 1085.55 156.697 1085.15 156.585C1084.86 156.486 1084.58 156.363 1084.31 156.216C1084.12 156.115 1083.95 156.001 1083.78 155.877C1083.11 155.364 1082.61 154.673 1082.32 153.884C1082.17 153.496 1082.08 153.085 1082.06 152.668V149.46C1082.06 148.723 1082.06 147.756 1081.99 147.078C1081.75 144.268 1080.46 141.649 1078.37 139.735C1076.82 138.304 1074.89 137.338 1072.81 136.949C1070.73 136.559 1068.57 136.761 1066.6 137.533C1065.3 138.052 1064.11 138.798 1063.07 139.735C1060.99 141.653 1059.7 144.271 1059.46 147.078C1059.4 147.756 1059.4 148.723 1059.39 149.46V152.679C1059.37 153.095 1059.28 153.505 1059.13 153.894C1058.84 154.684 1058.34 155.376 1057.67 155.887C1057.5 156.015 1057.33 156.128 1057.14 156.226C1056.88 156.381 1056.59 156.505 1056.3 156.594C1055.9 156.711 1055.49 156.775 1055.07 156.784C1054.87 156.784 1054.67 156.784 1054.46 156.784C1054.15 156.743 1053.85 156.673 1053.56 156.574C1053.37 156.506 1053.18 156.422 1053.01 156.325C1052.92 156.281 1052.83 156.232 1052.75 156.176C1052.23 155.856 1051.8 155.431 1051.47 154.93C1051.41 154.851 1051.35 154.768 1051.31 154.681C1051.06 154.287 1050.86 153.87 1050.7 153.436C1050.43 152.702 1050.27 151.933 1050.22 151.154V150.795C1050.22 149.864 1050.59 148.97 1051.25 148.308C1051.91 147.647 1052.81 147.273 1053.75 147.268C1054 147.275 1054.24 147.301 1054.48 147.348C1054.7 147.389 1054.92 147.456 1055.13 147.547C1055.55 147.729 1055.94 147.985 1056.27 148.304C1056.34 148.384 1056.42 148.464 1056.49 148.553C1056.95 149.093 1057.23 149.756 1057.3 150.456C1057.37 151.157 1057.22 151.862 1056.88 152.479C1056.77 152.679 1056.64 152.866 1056.49 153.037L1056.27 153.296C1055.91 153.624 1055.48 153.875 1055.02 154.034C1054.58 154.22 1054.11 154.315 1053.63 154.312H1053.72C1053.58 154.321 1053.44 154.304 1053.31 154.263H1053.1C1052.77 154.184 1052.45 154.06 1052.16 153.894C1052 153.793 1051.84 153.684 1051.69 153.565C1051.68 153.552 1051.66 153.542 1051.65 153.535C1051.63 153.528 1051.62 153.525 1051.6 153.525C1051.58 153.525 1051.56 153.528 1051.55 153.535C1051.53 153.542 1051.52 153.552 1051.51 153.565C1051.49 153.587 1051.48 153.615 1051.48 153.645C1051.48 153.674 1051.49 153.703 1051.51 153.725C1051.64 153.968 1051.78 154.204 1051.94 154.432C1052.34 154.989 1052.88 155.427 1053.51 155.698C1053.74 155.799 1053.99 155.876 1054.24 155.927C1054.64 156.008 1055.06 156.025 1055.47 155.977C1056.05 155.888 1056.6 155.666 1057.07 155.329L1057.26 155.179L1057.45 155.01C1057.75 154.725 1058 154.387 1058.18 154.014C1058.25 153.864 1058.31 153.715 1058.37 153.565C1058.42 153.415 1058.46 153.262 1058.49 153.107C1058.51 152.948 1058.51 152.788 1058.49 152.628V147.128C1058.58 145.579 1058.97 144.062 1059.63 142.654C1059.88 142.127 1060.16 141.618 1060.48 141.13C1060.7 140.806 1060.93 140.493 1061.18 140.193C1061.42 139.894 1061.68 139.595 1061.95 139.316L1062.38 138.898C1062.8 138.497 1063.25 138.131 1063.74 137.802C1063.9 137.692 1064.07 137.573 1064.23 137.483C1064.55 137.268 1064.89 137.074 1065.23 136.905C1067 136.041 1068.94 135.594 1070.91 135.599C1072.88 135.595 1074.82 136.042 1076.58 136.905C1076.92 137.079 1077.26 137.272 1077.58 137.483C1077.74 137.573 1077.91 137.692 1078.08 137.802C1078.56 138.133 1079.02 138.5 1079.44 138.898L1079.86 139.316C1080.13 139.594 1080.39 139.887 1080.63 140.193C1080.87 140.492 1081.09 140.805 1081.3 141.13C1081.62 141.618 1081.9 142.127 1082.15 142.654C1082.81 144.062 1083.2 145.579 1083.29 147.128V152.659C1083.29 152.817 1083.31 152.974 1083.35 153.127C1083.37 153.283 1083.41 153.437 1083.47 153.585C1083.52 153.739 1083.58 153.889 1083.65 154.034C1083.84 154.403 1084.09 154.739 1084.39 155.03L1084.57 155.19L1084.77 155.339C1085.24 155.684 1085.78 155.907 1086.36 155.987C1086.78 156.027 1087.21 155.996 1087.63 155.897C1087.87 155.849 1088.11 155.773 1088.34 155.668C1088.65 155.54 1088.95 155.365 1089.21 155.15C1089.48 154.936 1089.71 154.684 1089.91 154.402C1090.07 154.173 1090.21 153.944 1090.35 153.695C1090.38 153.671 1090.39 153.638 1090.39 153.605C1090.39 153.572 1090.38 153.54 1090.35 153.515C1090.33 153.499 1090.3 153.491 1090.27 153.491C1090.24 153.491 1090.22 153.499 1090.19 153.515C1090.04 153.64 1089.89 153.754 1089.72 153.854C1089.42 154.018 1089.1 154.142 1088.77 154.223H1088.58C1088.44 154.223 1088.3 154.223 1088.16 154.273H1087.95C1087.71 154.27 1087.47 154.246 1087.23 154.203C1087.01 154.154 1086.78 154.084 1086.57 153.994C1086.16 153.818 1085.78 153.564 1085.46 153.246C1085.38 153.171 1085.3 153.087 1085.23 152.997C1085.08 152.826 1084.95 152.639 1084.84 152.439C1084.56 151.92 1084.42 151.342 1084.42 150.755C1084.42 150.168 1084.56 149.59 1084.84 149.071C1084.95 148.872 1085.08 148.685 1085.23 148.513C1085.3 148.423 1085.38 148.34 1085.46 148.264C1085.79 147.943 1086.17 147.686 1086.59 147.507C1086.8 147.418 1087.02 147.348 1087.24 147.298C1087.48 147.254 1087.73 147.231 1087.97 147.228C1088.91 147.228 1089.81 147.597 1090.48 148.254C1091.15 148.911 1091.53 149.803 1091.53 150.735V151.084M1093.19 152.719C1092.79 152.717 1092.39 152.65 1092 152.519C1092.47 151.457 1092.5 150.255 1092.08 149.173C1091.66 148.091 1090.83 147.217 1089.76 146.74V143.94C1089.54 143.955 1089.32 143.955 1089.1 143.94C1088.37 143.94 1087.66 143.799 1086.99 143.525C1086.33 143.252 1085.72 142.851 1085.21 142.345C1084.7 141.84 1084.3 141.24 1084.03 140.58C1083.75 139.92 1083.61 139.213 1083.61 138.499C1083.61 137.891 1083.71 137.288 1083.92 136.716C1084.07 136.865 1084.25 136.984 1084.45 137.064C1084.65 137.145 1084.86 137.187 1085.07 137.187C1085.28 137.187 1085.49 137.145 1085.69 137.064C1085.89 136.984 1086.07 136.865 1086.22 136.716C1086.47 136.462 1086.64 136.134 1086.69 135.779C1086.73 135.565 1086.72 135.346 1086.67 135.134C1086.62 134.923 1086.53 134.723 1086.4 134.548C1086.27 134.373 1086.11 134.226 1085.92 134.116C1085.73 134.005 1085.52 133.934 1085.3 133.906C1085.08 133.879 1084.86 133.895 1084.65 133.954C1084.44 134.014 1084.24 134.115 1084.07 134.252C1083.9 134.389 1083.76 134.559 1083.66 134.751C1083.56 134.943 1083.5 135.154 1083.48 135.37C1083.44 135.629 1083.47 135.895 1083.57 136.138C1083.33 136.138 1083.08 136.137 1082.84 136.187C1081.32 136.183 1079.84 135.665 1078.66 134.719C1077.48 133.773 1076.66 132.457 1076.34 130.986C1076.74 131.036 1077.14 130.936 1077.47 130.707C1077.76 130.544 1077.99 130.312 1078.16 130.032C1078.32 129.753 1078.41 129.437 1078.42 129.113C1078.41 128.778 1078.32 128.449 1078.14 128.163C1077.97 127.877 1077.71 127.644 1077.41 127.487C1077.11 127.331 1076.78 127.257 1076.44 127.274C1076.1 127.291 1075.77 127.399 1075.49 127.585C1075.21 127.771 1074.98 128.029 1074.84 128.331C1074.69 128.634 1074.63 128.97 1074.66 129.304C1074.69 129.638 1074.81 129.957 1075.01 130.229C1075.21 130.501 1075.48 130.714 1075.79 130.846C1074.45 132.008 1072.74 132.648 1070.96 132.648C1069.18 132.648 1067.46 132.008 1066.12 130.846C1066.59 130.649 1066.96 130.284 1067.17 129.825C1067.38 129.366 1067.4 128.847 1067.24 128.371C1067.07 127.895 1066.73 127.498 1066.29 127.26C1065.84 127.021 1065.32 126.958 1064.83 127.084C1064.33 127.21 1063.91 127.515 1063.64 127.938C1063.36 128.362 1063.26 128.872 1063.35 129.366C1063.44 129.861 1063.71 130.304 1064.12 130.606C1064.53 130.908 1065.03 131.047 1065.54 130.996C1065.21 132.466 1064.39 133.784 1063.21 134.73C1062.03 135.675 1060.56 136.193 1059.04 136.197C1058.79 136.196 1058.54 136.179 1058.29 136.147C1058.41 135.761 1058.37 135.345 1058.19 134.982C1058.02 134.619 1057.71 134.335 1057.33 134.187C1056.95 134.038 1056.53 134.035 1056.15 134.178C1055.77 134.322 1055.45 134.601 1055.27 134.962C1055.17 135.225 1055.14 135.51 1055.18 135.789C1055.22 136.086 1055.34 136.367 1055.53 136.598C1055.72 136.829 1055.98 137.001 1056.26 137.094C1056.55 137.187 1056.86 137.197 1057.15 137.123C1057.45 137.049 1057.71 136.894 1057.92 136.676C1058.21 137.495 1058.3 138.372 1058.18 139.233C1058.06 140.094 1057.73 140.914 1057.22 141.622C1056.72 142.331 1056.04 142.908 1055.26 143.305C1054.48 143.701 1053.61 143.905 1052.74 143.9C1052.52 143.915 1052.3 143.915 1052.08 143.9V146.809C1051.3 147.156 1050.64 147.715 1050.18 148.422C1049.71 149.128 1049.46 149.952 1049.45 150.795C1049.45 151.411 1049.59 152.02 1049.85 152.579C1049.47 152.709 1049.06 152.777 1048.66 152.778C1047.72 152.778 1046.81 152.407 1046.15 151.748C1045.48 151.088 1045.11 150.194 1045.11 149.261C1045.11 148.328 1045.48 147.433 1046.15 146.773C1046.81 146.114 1047.72 145.743 1048.66 145.743C1049.3 145.735 1049.92 145.901 1050.47 146.222L1051.6 143.93C1050.25 143.672 1049.04 142.92 1048.22 141.823C1047.4 140.726 1047.03 139.364 1047.17 138.007C1047.32 136.651 1047.98 135.398 1049.01 134.498C1050.05 133.598 1051.39 133.116 1052.77 133.148H1053.05C1053.1 133.134 1053.15 133.101 1053.18 133.055C1053.21 133.009 1053.22 132.953 1053.21 132.899C1052.48 131.557 1052.25 130.008 1052.55 128.514C1052.84 127.02 1053.65 125.674 1054.84 124.704C1056.02 123.734 1057.51 123.2 1059.05 123.191C1060.58 123.183 1062.08 123.701 1063.27 124.659C1063.31 124.696 1063.37 124.717 1063.42 124.717C1063.48 124.717 1063.53 124.696 1063.57 124.659C1063.58 124.623 1063.58 124.585 1063.57 124.549C1063.81 122.801 1064.68 121.197 1066.02 120.035C1067.36 118.874 1069.08 118.234 1070.87 118.234C1072.65 118.234 1074.37 118.874 1075.71 120.035C1077.05 121.197 1077.92 122.801 1078.16 124.549C1078.16 124.577 1078.17 124.603 1078.18 124.627C1078.2 124.651 1078.22 124.672 1078.24 124.689C1078.26 124.705 1078.29 124.717 1078.31 124.724C1078.34 124.731 1078.37 124.732 1078.4 124.728C1078.43 124.736 1078.47 124.736 1078.5 124.728C1079.69 123.723 1081.2 123.166 1082.76 123.153C1084.33 123.141 1085.85 123.674 1087.06 124.659C1088.26 125.644 1089.08 127.019 1089.37 128.542C1089.66 130.065 1089.39 131.639 1088.62 132.989C1088.61 133.041 1088.62 133.097 1088.65 133.143C1088.68 133.19 1088.72 133.224 1088.77 133.238H1089.07C1090.43 133.233 1091.74 133.729 1092.75 134.63C1093.77 135.531 1094.4 136.772 1094.54 138.113C1094.68 139.454 1094.31 140.797 1093.51 141.883C1092.7 142.969 1091.52 143.72 1090.18 143.989L1091.3 146.282C1091.85 145.966 1092.48 145.801 1093.11 145.803C1094.05 145.803 1094.96 146.174 1095.62 146.833C1096.29 147.493 1096.66 148.388 1096.66 149.32C1096.66 150.253 1096.29 151.148 1095.62 151.808C1094.96 152.467 1094.05 152.838 1093.11 152.838M1066.12 143.87C1065.95 144.004 1065.74 144.085 1065.52 144.101C1065.3 144.118 1065.08 144.069 1064.88 143.961C1064.69 143.854 1064.54 143.692 1064.44 143.497C1064.34 143.301 1064.3 143.082 1064.32 142.865C1064.35 142.647 1064.44 142.443 1064.59 142.277C1064.73 142.111 1064.92 141.992 1065.13 141.933C1065.35 141.874 1065.57 141.879 1065.78 141.947C1065.99 142.015 1066.18 142.144 1066.31 142.316C1066.37 142.378 1066.41 142.448 1066.44 142.525C1066.57 142.747 1066.62 143.011 1066.56 143.262C1066.5 143.512 1066.34 143.73 1066.12 143.87ZM1076.87 143.262C1076.78 143.505 1076.6 143.705 1076.36 143.818C1076.13 143.932 1075.86 143.95 1075.61 143.87C1075.39 143.73 1075.24 143.512 1075.18 143.262C1075.12 143.011 1075.16 142.747 1075.29 142.525C1075.38 142.282 1075.55 142.082 1075.79 141.967C1076.02 141.852 1076.29 141.83 1076.54 141.907C1076.76 142.045 1076.92 142.264 1076.98 142.518C1077.04 142.771 1077 143.038 1076.87 143.262Z" fill="white"/>
<path d="M1068.29 174.71C1067.77 174.343 1067.14 174.142 1066.49 174.132H1062.19V174.899H1068.22C1068.24 174.902 1068.25 174.902 1068.26 174.899C1068.28 174.896 1068.29 174.89 1068.3 174.881C1068.31 174.872 1068.32 174.861 1068.33 174.849C1068.33 174.837 1068.33 174.823 1068.33 174.81C1068.34 174.794 1068.35 174.777 1068.35 174.759C1068.35 174.742 1068.34 174.725 1068.33 174.71" fill="white"/>
<path d="M1073.71 174.71C1073.7 174.719 1073.69 174.73 1073.68 174.743C1073.68 174.756 1073.67 174.771 1073.67 174.785C1073.67 174.799 1073.68 174.813 1073.68 174.826C1073.69 174.838 1073.7 174.85 1073.71 174.859C1073.72 174.865 1073.73 174.868 1073.75 174.868C1073.76 174.868 1073.78 174.865 1073.79 174.859H1079.83V174.092H1075.51C1074.86 174.102 1074.24 174.303 1073.71 174.67" fill="white"/>
<path d="M1159.68 136.456H1150.22V129.033H1145.68V147.278H1150.22V140.173H1159.68V147.278H1164.21V129.033H1159.68V136.456Z" fill="white"/>
<path d="M1207.16 140.542H1211.55V142.714C1210.31 143.601 1208.8 144.056 1207.26 144.009C1206.48 144.052 1205.7 143.942 1204.96 143.684C1204.22 143.427 1203.54 143.028 1202.96 142.509C1202.38 141.991 1201.9 141.364 1201.57 140.663C1201.23 139.963 1201.03 139.204 1200.99 138.429C1200.99 138.31 1200.99 138.2 1200.99 138.081C1200.99 134.454 1203.95 132.281 1207.31 132.281C1209.33 132.431 1211.27 133.078 1212.97 134.165L1214.65 131.175C1212.54 129.473 1209.9 128.543 1207.17 128.545C1200.8 128.545 1196.68 132.7 1196.68 138.071C1196.68 143.182 1200.43 147.577 1206.98 147.577C1210.07 147.644 1213.08 146.579 1215.43 144.587V137.104H1207.17L1207.16 140.542Z" fill="white"/>
<path d="M1229.24 140.004H1239.19V136.436H1229.24V132.61H1239.93V129.033H1224.75V147.278H1240.51V143.711H1229.24V140.004Z" fill="white"/>
<path d="M1253.75 143.711V140.004H1263.69V136.436H1253.75V132.61H1264.44V129.033H1249.25V147.278H1265V143.711H1253.75Z" fill="white"/>
<path d="M1179.29 129.033L1170.59 147.278H1175.19L1176.3 144.826H1186.36L1187.5 147.268H1192.14L1183.44 129.033H1179.29ZM1177.97 141.18L1181.25 133.985L1184.58 141.18H1177.97Z" fill="white"/>
<path d="M1130.53 132.371C1131.58 132.367 1132.62 132.574 1133.58 132.978C1134.55 133.382 1135.42 133.976 1136.15 134.723L1138.93 132.332C1137.91 131.125 1136.63 130.159 1135.18 129.504C1133.73 128.849 1132.16 128.521 1130.57 128.545C1124.44 128.545 1120.2 132.909 1120.2 138.16C1120.2 143.412 1124.14 147.766 1130.39 147.766C1132.04 147.804 1133.68 147.446 1135.16 146.725C1136.64 146.003 1137.93 144.939 1138.91 143.621L1135.97 140.971C1135.33 141.869 1134.49 142.6 1133.5 143.102C1132.51 143.603 1131.42 143.86 1130.31 143.85C1129.57 143.855 1128.84 143.717 1128.15 143.442C1127.47 143.168 1126.85 142.762 1126.32 142.25C1125.8 141.737 1125.38 141.127 1125.09 140.455C1124.81 139.782 1124.66 139.06 1124.65 138.33V138.171C1124.64 137.417 1124.79 136.669 1125.07 135.969C1125.35 135.27 1125.77 134.633 1126.31 134.094C1126.84 133.556 1127.47 133.126 1128.17 132.831C1128.87 132.535 1129.63 132.379 1130.39 132.371H1130.53Z" fill="white"/>
<path d="M1236.19 167.436V164.965H1238.26V159.056H1236.19V157.063H1239.21V155.289H1228.97V169.239H1239.35V167.466L1236.19 167.436ZM1236.57 163.6H1233.79V160.451H1236.57V163.6ZM1231.08 157.043H1234.16V159.036H1232.15V164.925H1234.16V167.376H1231.08V157.043Z" fill="white"/>
<path d="M1227.57 163.121C1228.12 161.218 1228.4 159.25 1228.4 157.272H1225.12C1225.22 156.405 1225.31 155.458 1225.37 154.432H1223.3C1223.3 155.429 1223.17 156.425 1223.06 157.272H1221.19V158.976H1222.79C1222.53 160.727 1222.16 162.461 1221.69 164.167C1222.48 164.666 1223.26 165.164 1224.01 165.771C1223.25 166.714 1222.31 167.505 1221.25 168.103L1222.42 169.737C1223.64 169.049 1224.7 168.136 1225.57 167.047C1226.16 167.561 1226.72 168.113 1227.23 168.701L1228.7 167.227C1228.7 167.227 1227.97 166.499 1226.64 165.403C1227.02 164.674 1227.34 163.91 1227.57 163.121ZM1223.92 163.26C1224.33 161.851 1224.64 160.417 1224.86 158.966H1226.4C1226.33 160.771 1225.89 162.543 1225.09 164.167C1224.73 163.848 1224.33 163.559 1223.95 163.26H1223.92Z" fill="white"/>
<path d="M1211.61 164.725V163.022H1206.58V161.218H1204.41V163.022H1199.53V164.725H1204.41V169.449H1206.58V164.725H1211.61Z" fill="white"/>
<path d="M1145.88 156.874H1153.48V157.472H1145.88V161.158H1147.74V158.827H1153.48V161.158H1155.53V158.827H1161.3V161.158H1163.18V157.472H1155.53V156.874H1163.18V155.269H1145.88V156.874Z" fill="white"/>
<path d="M1181.26 163.022H1187.59V161.228H1181.26V157.332H1188.16V155.439H1172.01V157.332H1178.84V161.228H1172.58V163.022H1178.84V167.396H1171.57V169.279H1188.6V167.396H1181.26V163.022Z" fill="white"/>
<path d="M1200.6 158.538H1202.68V157.083H1208.42V158.538H1210.48V157.083H1213.6V155.269H1210.48V154.422H1208.42V155.269H1202.68V154.422H1200.6V155.269H1197.47V157.083H1200.6V158.538Z" fill="white"/>
<path d="M1153.86 161.616H1152.04V161.965H1149.09V161.616H1147.31V161.965H1146.09V163.051H1147.31V164.158H1149.65V164.556H1146.53V166.967H1149.65V167.406H1146.09V168.622H1149.65V169.469H1151.56V168.622H1155.1V167.406H1151.56V166.967H1154.68V164.556H1151.56V164.158H1153.9V163.051H1155.1V161.965H1153.88L1153.86 161.616ZM1148.22 166.031V165.493H1149.61V166.031H1148.22ZM1152.91 165.493V166.031H1151.52V165.493H1152.91ZM1152.04 163.5H1149.09V163.091H1152.04V163.5Z" fill="white"/>
<path d="M1156.05 163.051V165.383C1156.11 166.643 1155.82 167.895 1155.2 169L1156.94 169.708C1157.44 168.922 1157.74 168.032 1157.83 167.107H1161.11V167.804C1161.11 167.865 1161.09 167.923 1161.04 167.966C1161 168.009 1160.94 168.033 1160.88 168.033H1160.12V169.488H1162.13C1162.37 169.488 1162.61 169.392 1162.78 169.22C1162.96 169.048 1163.05 168.815 1163.05 168.572V161.965H1156.09L1156.05 163.051ZM1157.94 165.891V165.144H1161.1V165.891H1157.94ZM1161.11 163.998H1157.95V163.201H1161.11V163.998Z" fill="white"/>
<path d="M1152.85 159.235H1148.47V160.022H1152.85V159.235Z" fill="white"/>
<path d="M1152.85 160.351H1148.47V161.158H1152.85V160.351Z" fill="white"/>
<path d="M1160.56 159.235H1156.18V160.022H1160.56V159.235Z" fill="white"/>
<path d="M1160.56 160.351H1156.18V161.158H1160.56V160.351Z" fill="white"/>
<path d="M1205.57 157.631H1204.68C1202.34 159.573 1199.59 160.967 1196.63 161.706L1197.49 163.52C1200.42 162.687 1203.16 161.292 1205.54 159.414C1207.93 161.289 1210.67 162.683 1213.59 163.52L1214.45 161.716C1211.5 160.955 1208.75 159.564 1206.4 157.641L1205.57 157.631Z" fill="white"/>
<path d="M1197.91 167.565L1198.81 169.239C1200.51 168.538 1202.11 167.645 1203.6 166.579L1202.43 165.004C1201.04 166.046 1199.52 166.907 1197.91 167.565Z" fill="white"/>
<path d="M1207.7 166.649C1209.25 167.405 1210.75 168.27 1212.19 169.239L1213.19 167.575C1211.74 166.639 1210.22 165.806 1208.64 165.084L1207.7 166.649Z" fill="white"/>
<path d="M1068.69 151.792C1068.71 151.795 1068.73 151.789 1068.75 151.776C1068.77 151.763 1068.78 151.744 1068.79 151.722C1068.79 151.713 1068.79 151.702 1068.79 151.692C1068.79 151.682 1068.79 151.672 1068.79 151.662C1068.58 151.405 1068.28 151.231 1067.95 151.174C1067.41 151.134 1066.86 151.134 1066.31 151.174C1065.56 151.171 1064.82 151.005 1064.14 150.686C1063.78 150.494 1063.37 150.387 1062.96 150.373C1062.55 150.359 1062.15 150.439 1061.77 150.606C1061.7 150.606 1061.77 150.756 1061.77 150.746C1062.03 150.718 1062.29 150.743 1062.53 150.818C1062.78 150.894 1063.01 151.018 1063.2 151.184C1063.85 151.646 1064.59 151.959 1065.38 152.101C1066 152.191 1066.65 152.15 1067.26 151.981C1067.72 151.801 1068.22 151.736 1068.71 151.792" fill="white"/>
<path d="M1076.61 152.111C1077.39 151.97 1078.13 151.661 1078.77 151.204C1078.96 151.036 1079.19 150.91 1079.44 150.835C1079.68 150.759 1079.94 150.736 1080.2 150.766C1080.28 150.766 1080.3 150.656 1080.2 150.626C1079.83 150.457 1079.42 150.376 1079.01 150.388C1078.6 150.4 1078.2 150.505 1077.83 150.696C1077.15 151.011 1076.41 151.178 1075.65 151.184C1075.11 151.134 1074.56 151.134 1074.02 151.184C1073.69 151.236 1073.39 151.406 1073.19 151.662C1073.17 151.677 1073.16 151.697 1073.16 151.717C1073.16 151.737 1073.17 151.757 1073.19 151.772C1073.21 151.78 1073.23 151.78 1073.26 151.772C1073.75 151.715 1074.25 151.78 1074.71 151.961C1075.32 152.13 1075.95 152.181 1076.57 152.111" fill="white"/>
<path d="M1072.29 157.292C1072.41 157.222 1072.45 157.172 1072.44 157.132C1072.43 157.093 1072.32 157.023 1072.14 157.132C1071.78 157.29 1071.38 157.372 1070.99 157.372C1070.59 157.372 1070.2 157.29 1069.83 157.132C1069.65 157.073 1069.52 157.133 1069.54 157.182C1069.56 157.232 1069.54 157.272 1069.66 157.332C1070.03 157.643 1070.49 157.815 1070.98 157.815C1071.46 157.815 1071.92 157.643 1072.29 157.332" fill="white"/>
<path d="M1068.66 160.421C1068.9 160.789 1069.25 161.079 1069.66 161.258C1070.1 161.45 1070.57 161.55 1071.04 161.55C1071.52 161.55 1071.99 161.45 1072.42 161.258C1072.81 161.071 1073.14 160.781 1073.37 160.421C1073.46 160.271 1073.58 160.139 1073.72 160.032C1073.73 160.022 1073.74 160.009 1073.74 159.996C1073.75 159.982 1073.75 159.967 1073.75 159.952C1073.75 159.937 1073.75 159.923 1073.74 159.909C1073.74 159.895 1073.73 159.883 1073.72 159.872C1073.72 159.813 1073.57 159.872 1073.57 159.872C1073.28 159.964 1072.97 159.981 1072.67 159.923C1072.46 159.839 1072.23 159.803 1072.01 159.816C1071.78 159.83 1071.56 159.894 1071.36 160.002C1071.28 160.1 1071.16 160.163 1071.03 160.181C1070.9 160.165 1070.78 160.101 1070.7 160.002C1070.5 159.889 1070.27 159.823 1070.03 159.809C1069.8 159.795 1069.57 159.834 1069.35 159.923C1069.05 159.981 1068.74 159.964 1068.46 159.872H1068.31C1068.31 159.872 1068.31 159.982 1068.31 160.032C1068.45 160.139 1068.57 160.271 1068.67 160.421" fill="white"/>
<path d="M1512.1 134.67C1511.07 138.503 1509.53 142.183 1507.52 145.613L1507.37 145.851L1510.02 147.702L1510.19 147.463C1512.35 143.954 1513.95 140.14 1514.95 136.152V135.943L1512.15 134.302L1512.1 134.67ZM1512.1 133.436L1512.28 133.695L1514.55 131.705L1514.37 131.486C1512.85 129.559 1510.95 127.952 1508.8 126.761L1508.63 126.661L1506.43 128.512L1506.74 128.741C1508.71 130.084 1510.51 131.653 1512.1 133.416M1533.04 123.577L1532.89 123.369C1531.9 122.085 1530.73 120.946 1529.42 119.986L1529.24 119.847L1526.89 121.617L1527.17 121.856C1527.17 121.856 1528.46 122.96 1529.24 123.776H1526.01V119.638H1522.95V123.776H1514.58C1514.58 123.776 1514.58 124.124 1514.58 124.174C1513.39 122.999 1512.07 121.968 1510.63 121.1L1510.47 120.991L1508.11 122.821L1508.43 123.05C1510.33 124.384 1512.08 125.912 1513.65 127.606L1513.83 127.815C1513.83 127.815 1515.38 126.691 1515.51 126.582H1522.98V128.233H1515.95V148.13H1518.96V140.828H1523.05V147.334H1526.11V140.828H1530.27V144.916C1530.18 144.986 1529.74 145.185 1527.61 145.185H1527.05L1528.05 148.169H1530.06C1530.78 148.167 1531.48 147.889 1532 147.394C1532.55 146.913 1532.91 146.248 1533 145.523V128.333H1525.88V126.651H1535.26V123.836H1532.74C1532.8 123.788 1532.86 123.734 1532.91 123.677M1522.82 138.092H1518.73V135.854H1522.82V138.092ZM1522.82 133.118H1518.73V131.128H1522.82V133.118ZM1530.04 138.092H1525.88V135.854H1530.04V138.092ZM1530.04 133.118H1525.85V131.188H1530.04V133.118ZM1557.48 141.425C1559.22 139.412 1560.63 137.139 1561.65 134.69V132.372H1551.2C1551.37 131.884 1551.72 130.86 1551.82 130.581H1565.7V127.775H1552.5C1552.76 126.482 1553.1 124.304 1553.5 121.259V121.001L1550.67 120.274V120.613C1550.46 123.024 1550.08 125.417 1549.53 127.775H1545.15L1547.4 122.195L1544.79 120.842L1541.78 128.183V130.581H1548.75C1547.39 136.467 1543.73 141.581 1538.59 144.817L1538.31 144.986L1540.38 147.403L1540.62 147.245C1545.18 143.962 1548.24 140.281 1549.77 136.222C1550.77 138.129 1552.01 139.903 1553.46 141.504C1550.85 143.635 1547.74 145.079 1544.42 145.702L1543.98 145.802L1545.7 148.239H1545.89C1549.52 147.601 1552.89 145.932 1555.59 143.434C1557.13 144.594 1558.74 145.641 1560.43 146.568C1561.86 147.296 1563.38 147.857 1564.94 148.239H1565.11L1567.12 145.871L1566.66 145.762C1563.3 144.984 1560.15 143.502 1557.42 141.414M1555.41 139.425C1554.21 138.155 1553.2 136.729 1552.4 135.187H1558.19C1557.45 136.718 1556.5 138.143 1555.38 139.425M1578.36 131.526H1581.68V128.71H1575.66C1575.97 128.014 1576.2 127.427 1576.37 126.97H1581.97V124.164H1577.2C1577.42 123.117 1577.55 122.051 1577.57 120.981V120.752L1574.79 120.026V120.374C1574.42 125.457 1572.79 129.327 1569.77 131.755L1569.54 131.924L1571.38 134.122H1571.2V136.848H1575.34V144.141C1575.38 144.607 1575.27 145.075 1575.03 145.473L1574.86 145.643L1576.49 148.2L1582.11 145.265V142.28L1578.34 144.11V136.848H1582.2V134.043H1578.34L1578.36 131.526ZM1575.35 134.122H1571.59L1571.7 134.023C1572.61 133.29 1573.42 132.452 1574.12 131.526H1575.35V134.122ZM1592.65 141.236C1594.35 140.227 1595.82 138.87 1596.95 137.256L1597.11 137.028L1595.02 135.396H1595.62V121.379H1582.67V144.469C1582.67 145.225 1582.5 145.464 1582.4 145.553L1582.22 145.712L1583.62 148.279L1590.3 145.871V142.817L1585.65 144.369V135.257H1587.66C1587.91 137.93 1588.82 140.502 1590.32 142.738C1591.83 144.995 1594.12 146.622 1596.76 147.304L1596.95 147.364L1598.96 144.837L1598.53 144.718C1595.71 143.971 1593.73 142.728 1592.63 141.116M1585.6 124.045H1592.63V126.781H1585.6V124.045ZM1585.6 129.487H1592.63V132.471H1585.6V129.487ZM1591.36 138.778C1590.88 137.655 1590.57 136.469 1590.43 135.257H1594.7L1594.61 135.386C1593.81 136.757 1592.7 137.92 1591.36 138.778ZM1605.72 130.004C1608.76 127.665 1611.34 124.804 1613.35 121.558L1613.49 121.329L1611.2 119.548L1611.03 119.817C1609.04 123.006 1606.42 125.764 1603.32 127.925L1602.99 128.164L1605.54 130.153L1605.72 130.004ZM1614.35 129.496V132.302H1622.46V144.807C1622.46 145.076 1622.35 145.125 1622.29 145.145C1621.78 145.282 1621.25 145.326 1620.73 145.275C1619.72 145.275 1618.72 145.274 1617.84 145.165H1617.4L1618.33 148.149H1620.27C1621.28 148.179 1622.29 148.113 1623.29 147.951C1623.93 147.828 1624.5 147.474 1624.89 146.956C1625.29 146.437 1625.5 145.804 1625.5 145.155V132.372H1631V129.527L1614.35 129.496ZM1614.85 128.502L1612.5 126.93L1612.33 127.169C1609.91 130.853 1606.7 133.967 1602.93 136.291L1602.61 136.47L1604.87 138.798L1608.04 136.56V147.941H1610.99V133.675C1612.38 132.127 1613.62 130.462 1614.72 128.701L1614.85 128.502ZM1628.91 124.881V122.035H1615.04V124.881H1628.91ZM1561.69 127.218L1561.86 127.467L1564.32 125.686L1564.15 125.448C1562.7 123.453 1560.96 121.685 1558.98 120.205L1558.79 120.085L1556.4 121.757L1556.7 122.006C1558.54 123.569 1560.23 125.316 1561.72 127.218" fill="white"/>
<path d="M1607.1 169.151L1606.82 168.743C1606.4 168.156 1597.19 154.815 1596.49 153.82H1593.6V171.598H1595.61V156.228L1595.89 156.636C1596.29 157.213 1605.6 170.563 1606.31 171.558H1609.1V153.76H1607.1V169.151ZM1616.67 162.077L1616.56 161.968L1616.67 161.868C1616.75 161.779 1623.99 155.213 1625.56 153.79H1622.81L1614.34 161.65L1614.09 161.888V153.76H1612.08V171.538H1614.09V162.167L1614.35 162.435C1614.7 162.794 1622.6 170.852 1623.26 171.538H1626.19C1624.64 169.986 1616.75 162.137 1616.67 162.047M1517.16 161.689C1515.04 161.053 1513.02 160.446 1513.02 158.148C1513.02 157.024 1513.85 155.163 1516.88 155.163C1517.51 155.148 1518.14 155.274 1518.71 155.53C1519.28 155.787 1519.79 156.168 1520.2 156.645C1520.3 156.556 1521.63 155.342 1521.84 155.163C1521.2 154.518 1520.42 154.02 1519.57 153.705C1518.71 153.39 1517.79 153.267 1516.88 153.343C1512.52 153.343 1510.86 156.327 1510.86 158.197C1510.86 162.047 1513.65 162.923 1516.11 163.699C1518.12 164.326 1519.96 164.912 1519.96 166.922C1519.96 169.2 1517.64 170.225 1516.02 170.225C1515.26 170.239 1514.51 170.08 1513.82 169.759C1513.14 169.438 1512.54 168.964 1512.07 168.374L1510.41 169.787C1511.1 170.549 1511.96 171.146 1512.92 171.536C1513.87 171.925 1514.91 172.096 1515.94 172.036C1519.56 172.036 1522.09 169.817 1522.09 166.644C1522.09 163.241 1519.57 162.485 1517.13 161.739M1531.09 153.78H1524.87V171.558H1526.88V163.49H1531.12C1536.23 163.49 1536.78 160.097 1536.78 158.635C1536.78 157.173 1536.23 153.78 1531.12 153.78M1530.42 161.828H1526.88V155.442H1530.42C1531.43 155.442 1534.64 155.442 1534.64 158.635C1534.64 161.828 1531.47 161.828 1530.42 161.828ZM1544.86 153.78H1538.69V171.558H1544.45C1545.8 171.612 1547.14 171.396 1548.41 170.925C1549.67 170.453 1550.82 169.734 1551.79 168.812C1552.6 168.001 1553.24 167.041 1553.67 165.986C1554.1 164.931 1554.32 163.802 1554.31 162.664C1554.31 161.759 1554.04 153.78 1544.86 153.78ZM1544.08 169.698H1540.68V155.561H1544.69C1551.95 155.561 1552.17 161.898 1552.17 162.624C1552.17 167.499 1548.15 169.698 1544.13 169.698M1569.68 161.977C1570.55 161.743 1571.32 161.233 1571.86 160.524C1572.4 159.815 1572.7 158.948 1572.7 158.058C1572.7 155.352 1570.69 153.74 1567.34 153.74H1561.19V171.518H1567.21C1570.95 171.518 1573.45 169.528 1573.45 166.673C1573.45 164.415 1571.71 162.117 1569.63 161.977M1563.13 155.402H1567.32C1567.74 155.355 1568.16 155.398 1568.55 155.529C1568.95 155.66 1569.31 155.875 1569.62 156.16C1569.92 156.444 1570.16 156.791 1570.31 157.175C1570.46 157.56 1570.53 157.973 1570.51 158.386C1570.51 160.276 1569.15 161.371 1566.79 161.371H1563.13V155.402ZM1567.06 169.847H1563.13V162.982H1567.08C1569.76 162.982 1571.31 164.266 1571.31 166.494C1571.31 169.608 1568.06 169.847 1567.06 169.847ZM1582.01 153.74C1581.93 153.92 1574.29 171.1 1574.1 171.518H1576.46C1576.53 171.319 1578.28 166.991 1578.28 166.991H1587.41C1587.41 166.991 1589.19 171.319 1589.26 171.518H1591.62L1583.94 153.74H1582.01ZM1578.99 165.33L1582.9 155.909L1586.74 165.33H1578.99Z" fill="white"/>
<path d="M1464.04 138.947L1464.27 138.758C1465.94 137.487 1467.85 136.558 1469.89 136.025C1471.92 135.492 1474.05 135.366 1476.13 135.654C1475.37 133.535 1472.12 126.492 1462.34 126.492C1460.2 126.491 1458.08 126.971 1456.15 127.896C1454.22 128.822 1452.53 130.168 1451.19 131.834C1449.34 134.134 1448.24 136.943 1448.04 139.882C1447.24 148.269 1442.73 152.288 1442.21 152.726C1440.57 154.123 1438.64 155.138 1436.55 155.694C1434.46 156.25 1432.28 156.334 1430.15 155.939C1431.21 158.762 1433.15 161.176 1435.69 162.828C1438.23 164.48 1441.24 165.284 1444.27 165.121C1448.1 165.024 1451.73 163.437 1454.38 160.704C1457.57 157.541 1458.25 152.637 1458.4 151.204C1459.07 144.031 1462.57 140.261 1464.06 138.947M1488.35 125.308C1488.33 124.808 1488.21 124.317 1488 123.865C1487.78 123.413 1487.47 123.01 1487.09 122.682L1479.51 116.912C1479.51 116.912 1477.98 115.639 1477.98 117.569C1477.98 124.115 1477.98 140.679 1477.98 140.679V141.265C1477.98 143.32 1477.54 145.351 1476.68 147.221C1475.83 149.092 1474.57 150.758 1473.01 152.109C1471.19 153.687 1469.05 154.853 1466.73 155.525C1464.41 156.197 1461.97 156.359 1459.58 155.999C1460.66 158.198 1464.77 165.191 1474.05 165.191C1482.61 165.191 1488.36 157.72 1488.36 150.746L1488.35 125.308ZM1433.35 139.465C1435.16 137.886 1437.31 136.72 1439.63 136.048C1441.95 135.377 1444.39 135.215 1446.78 135.575C1445.7 133.377 1441.58 126.393 1432.31 126.393C1423.76 126.393 1418 133.854 1418 140.818C1418 140.818 1418 154.626 1418 166.684C1418.01 167.184 1418.13 167.676 1418.35 168.129C1418.56 168.583 1418.87 168.988 1419.25 169.32L1426.84 175.09C1426.84 175.09 1428.36 176.363 1428.36 174.423V150.915C1428.36 150.915 1428.36 150.667 1428.36 150.318C1428.36 148.262 1428.81 146.231 1429.68 144.362C1430.55 142.493 1431.81 140.83 1433.38 139.485" fill="white"/>
</svg>
