<svg xmlns="http://www.w3.org/2000/svg" viewBox="0 0 1360.58 319.1"><defs><style>.cls-1{fill:#fff;}</style></defs><title>资源 3</title><g id="图层_2" data-name="图层 2"><g id="图层_1-2" data-name="图层 1"><path class="cls-1" d="M0,170.9c0-16.12,8.2-32.65,20.55-44.47s30.63-20,49-20a62.72,62.72,0,0,1,11.82,1.21,65.72,65.72,0,0,0,7.52,1.2c3.09,0,6.18-2.15,9.14-6.31.4-.4.8-.4.94,0l-5.64,41.91c-.14.41-.27.54-.68.41s-.4-.14-.27-.41C92.56,132.88,90,124,84.77,117.7S74,108.16,67.84,108.16c-8.33,0-16.39,3-24.05,9a63,63,0,0,0-18,22.44,60,60,0,0,0-6.58,26.87c0,18.67,10.08,28.74,27.41,28.74q22.77,0,45.13-28.48c1.08-.67,1.62-.13.94.81q-28.6,35.86-59.11,35.87C13.3,203.41,0,191.85,0,170.9Z"/><path class="cls-1" d="M195.74,167.81a150.26,150.26,0,0,1-16.53,20.28c-7.52,7.93-16.79,14.38-23.64,15a13.47,13.47,0,0,1-9.94-3.63c-2.69-2.55-3.36-5.91-2.15-10.07,1.74-5.24,4.56-12.9,8.33-22.84h-.68a147.68,147.68,0,0,1-20,23.37c-7.26,6.86-13.84,11.29-19.62,13.17-4.16,1.34-7.65-.13-10.61-4.57s-3.36-9.4-1.34-14.91c.94-2.95,3.36-9.4,7.12-19.48s6.18-16.25,7-18.67c.94-2.15,0-4.57-1.74-4.57-2.69,1.21-6.18,4.17-10.62,8.87-.53.4-1.34-.14-.8-.81l5.64-6.85c2.69-3.22,6.85-7.25,10.08-8.87,5.1-3.22,15.31,4,11.82,14.24L115.8,181.24c-1.61,8.06-.13,11.69,3.09,12.63,4.57-.81,10.75-5.1,18.68-12.9s13.56-15.58,16.92-23.24c3-7.52,5.38-14.37,7.12-20.42a3,3,0,0,1,1.62-1.74c3.22-1.35,8.06-2.29,14.37-2.82,1.48,0,1.61.13,1.07,1.61-10.34,25.93-17.46,45.27-21.09,57.76-1.21,3.9-.4,7.39,1.75,7.39,5.37-1.21,11.82-5.77,19.34-13.43s12.9-14.24,16-19.35C195.6,165.79,196.27,166.73,195.74,167.81Z"/><path class="cls-1" d="M196.28,200.59a40.33,40.33,0,0,1-14.38,2.68c-1.21.14-1.61-.13-1.07-1.61a489.47,489.47,0,0,0,20.82-56.15c.67-2.15-.13-4.57-1.75-4.57-2.68,1.21-6.18,4.17-10.61,8.87-.54.4-1.34-.14-.8-.81l5.64-6.85c2.68-3.22,6.85-7.25,10.07-8.87C209,129.52,220.05,138,216,147.52l-8.32,22h.67a171,171,0,0,1,20.69-26.34c7-7.12,13.3-10.74,18.8-10.74a12.16,12.16,0,0,1,9.27,3.62c2.42,2.42,3.63,4.84,3.63,7.39s-1.48,4.71-4.3,6.72a14.92,14.92,0,0,1-8.87,3c-1.34,0-2-.68-2-1.88,0-5.51-3-10.35-7.79-10.48-3.76,0-9.14,4.3-16.12,12.76a112.39,112.39,0,0,0-16.12,25.12c-2,4.57-4.57,11.28-7.66,20A2.87,2.87,0,0,1,196.28,200.59Z"/><path class="cls-1" d="M311.81,167.81a150,150,0,0,1-16.52,20.28c-7.53,7.93-16.79,14.38-23.65,15a13.37,13.37,0,0,1-10.07-3.76c-2.69-2.69-3.36-6.18-2-10.35s4.17-12.22,8.47-24.31l6.85-19.21c.94-2.15,0-4.57-1.75-4.57-2.68,1.21-6.18,4.17-10.61,8.87-.54.4-1.34-.14-.81-.81.68-.94,3.09-3.89,3.76-4.57.68-.94,2.83-3.35,3.5-4,3-3,5.64-5.64,8.46-7.12,5.11-3.22,15.32,4,11.82,14.24l-15.58,44.6c-1.21,3.9-.4,7.39,1.75,7.39,5.37-1.21,11.82-5.77,19.34-13.43s12.9-14.24,16-19.35C311.68,165.79,312.35,166.73,311.81,167.81ZM282,114.34c2-7.39,14.64-11.28,18.13-6,3.77,4.7-3.76,15.31-11.95,14.51C282.79,122.81,280.24,119.31,282,114.34Z"/><path class="cls-1" d="M309,157.87A55.47,55.47,0,0,1,327.8,139.6,45,45,0,0,1,351,132.75c14.91,0,23,9.67,23,22,0,8.06-2.42,15.85-7.39,23.51a57.76,57.76,0,0,1-18.81,18.13q-11.47,6.86-23,6.85c-15.45,0-23.24-9.27-23.24-21.22A43.63,43.63,0,0,1,309,157.87Zm34.93,34.39a72.5,72.5,0,0,0,10.61-19.75A65.14,65.14,0,0,0,359,151.82c0-10.88-5.1-16.39-15.31-16.39-3.9,0-7.93,2.56-12.09,7.79A67,67,0,0,0,321,162.44a62.85,62.85,0,0,0-4.17,21.76c0,10.88,5.11,16.39,15.18,16.39C335.72,200.59,339.75,197.77,343.92,192.26Z"/><path class="cls-1" d="M379.92,178.69c.27-2.28,1.48-4.7,3.5-7.39a12.26,12.26,0,0,1,7.12-5c4.29-.54,7,8.73,4.7,9.67-6.45,2-9.81,6.72-9.67,11.69.4,8.46,7.52,14.78,17.59,14.78,11.29,0,18.27-6.05,18.14-12.63a11.4,11.4,0,0,0-2.42-6.45,22.67,22.67,0,0,0-4.43-5.24l-7.52-6.45c-9.81-8.06-14.51-13-14.51-19.61,0-12,10.88-19.61,26.46-19.61A31.54,31.54,0,0,1,434.2,136c4.16,2.28,6.18,5,6.18,8.2,0,1.74-1.21,3.49-3.5,5.23a12.31,12.31,0,0,1-7.79,2.56c-.94,0-1.48-.54-1.61-1.62-.4-5.37-.67-7.12-2.42-10.74s-5.37-5.24-11.28-5.38c-5.24-.13-9.27,5.24-9.14,11.83a10.17,10.17,0,0,0,1.75,5.5c2.28,3.63,3.76,4.57,8.73,8.74.94.67,2.28,1.88,4.17,3.35s3.22,2.42,3.89,3.09a34,34,0,0,1,3.23,2.69,19.44,19.44,0,0,1,5,5.91,11.33,11.33,0,0,1,1.88,6.85c.13,6.72-2.69,12-8.6,15.85s-13,5.65-21.5,5.65C382.07,203.68,377.37,187.29,379.92,178.69Z"/><path class="cls-1" d="M496.93,167.81a150,150,0,0,1-16.52,20.28c-7.52,7.93-16.79,14.38-23.64,15a13.38,13.38,0,0,1-10.08-3.76c-2.69-2.69-3.36-6.18-2-10.35s4.16-12.22,8.46-24.31L460,145.51c.94-2.15,0-4.57-1.74-4.57-2.69,1.21-6.18,4.17-10.62,8.87-.54.4-1.34-.14-.8-.81.67-.94,3.09-3.89,3.76-4.57.67-.94,2.82-3.35,3.49-4,3-3,5.64-5.64,8.46-7.12,5.11-3.22,15.32,4,11.83,14.24l-15.59,44.6c-1.21,3.9-.4,7.39,1.75,7.39,5.37-1.21,11.82-5.77,19.34-13.43s12.9-14.24,16-19.35C496.8,165.79,497.47,166.73,496.93,167.81Zm-29.82-53.47c2-7.39,14.64-11.28,18.14-6,3.76,4.7-3.76,15.31-12,14.51C467.92,122.81,465.37,119.31,467.11,114.34Z"/><path class="cls-1" d="M544.36,168.35c-3.36,5.5-10.21,12.62-20.29,21.09s-18.54,13-25.39,13.7a13.37,13.37,0,0,1-10.07-3.76c-2.69-2.69-3.36-6.18-2-10.35,2.69-8.19,9-26.06,19.08-53.33h-9.41l.41-1.07c14.37-4,25.39-12,33.18-23.92.27-.4.53-.53.67-.4a.25.25,0,0,1,0,.4l-8.46,23.38h14.1l-1.07,1.61H521.25c-1.21,3.36-4.3,11.82-9.4,25.39S503,185,500.7,192.12c-1.21,3.9-.41,7.39,1.74,7.39,6.32-1.21,14.11-5.64,23.24-13.43s15.05-14,17.6-18.54A.68.68,0,0,1,544.36,168.35Z"/><path class="cls-1" d="M615.15,134.36c-2,5-5.24,13.43-9.8,25.52l-14.78,40c-5.24,14.5-8.87,24.18-10.61,28.88a71.88,71.88,0,0,1-22.57,30.36q-15.52,12.49-28.21,12.49a64,64,0,0,1-13.3-1.48c-4.44-.94-7.39-2-9-3.35-.14-1.08.67-2.69,2.28-4.84a98.48,98.48,0,0,1,6.58-8.06l5.51-6.31c.67-.41,1.21.13.94.67a19.56,19.56,0,0,0-2.69,4.16c-1.2,2.29-1.74,3.63-1.61,4.3,1.21,2.55,5,4.7,11,6.58s11,3,14.91,3c2.28-.94,5.51-5,9.54-11.82a140.51,140.51,0,0,0,10.48-22.17l24.45-65.69h-.68a152.73,152.73,0,0,1-20.28,23.24q-11.28,10.49-20.15,13.3c-8.2,2.42-16-8.33-11.15-19.48,4-9.81,8.73-22.43,14.1-38.15.94-2.15,0-4.57-1.74-4.57-2.69,1.21-6.18,4.17-10.62,8.87-.53.4-1.34-.14-.8-.81l5.64-6.85c2.69-3.22,6.85-7.25,10.08-8.87,5.1-3.22,15.31,4,11.82,14.24l-12.23,33.72c-2.28,8.06-.94,11.15,2.42,11.82,4.57-.8,10.88-5,19.08-12.62s14-15.32,17.19-22.71c3-7.52,5.38-14.37,7.12-20.42a3,3,0,0,1,1.62-1.74c3.22-1.35,8-2.29,14.37-2.82C615.56,132.75,615.69,132.88,615.15,134.36Z"/><path class="cls-1" d="M602.8,222.62a82.16,82.16,0,0,0,15-10.88c4.84-4.17,7.93-7.93,9.14-11.15-4.17,1.88-6.85,2.82-8.2,2.82-5.24,0-8.32-2.82-6.31-8.6,1.75-4.7,7.25-9,12.76-9,5.78,0,8.47,3.76,6.32,9.81a38.4,38.4,0,0,1-11,15.85,81.83,81.83,0,0,1-17.2,12.22Z"/><path class="cls-1" d="M1035.13,208.53h15a93.46,93.46,0,0,0,11.69-.54,49,49,0,0,0,10.61-3c11.28-4.7,20.69-15.18,34.66-38.42.4-.54.67-.67,1.07-.54.14.13.14.27,0,.54l-26.19,49q-.6.6-.81,0c-1.34-3.63-6.58-5.51-15.72-5.51h-46.07c-1.21,0-7,.41-13.3.41-.67,0-.81-.27-.41-.68a.84.84,0,0,1,.81-.4c5-.13,8.73-1.34,11.15-3.76s5.37-8.33,8.73-17.6l19.35-53.06c5.5-16.26,0-18.27-8.2-18.27a.73.73,0,0,1-.8-.54c0-.27.13-.4.53-.4,5,0,9.81.4,10.89.4l19.74-.13c1.61,0,8.6-.41,16-.41.67,0,.81.14.54.54a1.05,1.05,0,0,1-.94.4c-12.36.68-15.18,2.15-23,21.77Z"/><path class="cls-1" d="M1119.1,166a55.47,55.47,0,0,1,18.81-18.27,45,45,0,0,1,23.24-6.86c14.91,0,23,9.68,23,22,0,8.06-2.42,15.85-7.39,23.51a57.76,57.76,0,0,1-18.81,18.13q-11.48,6.85-23,6.85c-15.45,0-23.24-9.27-23.24-21.22A43.6,43.6,0,0,1,1119.1,166ZM1154,200.34a72.5,72.5,0,0,0,10.61-19.75,65.14,65.14,0,0,0,4.43-20.69c0-10.88-5.1-16.39-15.31-16.39-3.9,0-7.93,2.55-12.09,7.79a66.88,66.88,0,0,0-10.61,19.21,62.9,62.9,0,0,0-4.17,21.77c0,10.88,5.11,16.39,15.18,16.39C1145.83,208.67,1149.86,205.84,1154,200.34Z"/><path class="cls-1" d="M1266.34,154c0,8.73-4,19.75-11.15,29.82-9.81,14.78-27,28.08-44.87,27.95-3.36,0-6.45-1.48-9.41-4.44s-4.29-6.85-4.29-11.69c0-6.71,3.49-20.68,10.61-41.91.94-2.28,0-4.7-1.61-4.7q-3.84,1.6-10.48,8.87c-.54.4-1.35-.14-.81-.81l1.21-1.48c5.78-7,9.94-11.42,12.76-13.16l1.75-1.08c5.1-3.36,14.91,3.9,11.69,14.24-6.59,19.48-9.94,33.18-9.94,41.38,0,6.31,3.35,10.61,9.8,10.61,5.78,0,14.38-5.1,21.77-12.49a49.33,49.33,0,0,0,9.4-13.3,35.56,35.56,0,0,0,3.9-15.45c0-7.12-3.09-12.49-9.27-16.39-.68-.4-1.08-.81-1.08-1.48,0-1.21,1.21-2.82,3.76-4.83s5-3.09,7.26-3.09C1262,140.56,1266.34,146.06,1266.34,154Z"/><path class="cls-1" d="M1353.53,177.9a124.51,124.51,0,0,1-23,21.76c-9.68,7.12-21.9,12-33,12-15.59,0-23.65-8.19-23.65-22q0-11.09,7.26-22.57a61.23,61.23,0,0,1,18.67-18.94c7.66-5,15.18-7.52,22.84-7.52,5.91,0,10.61,1.34,14.24,4s5.37,5.5,5.37,8.59c0,4.44-3,8.2-7.65,11.42a63.7,63.7,0,0,1-10.48,5.11c-4.7,1.88-9.41,3.62-14.38,5.24L1290,181a33.86,33.86,0,0,0-.54,6.58c0,10.89,5.91,17.2,17.19,17.2,15.32,0,30.63-9.27,45.95-27.94C1353.53,175.89,1354.2,176.83,1353.53,177.9Zm-53.74-22.84a66.72,66.72,0,0,0-9.54,24.59,253.51,253.51,0,0,0,24.72-9.81c5.51-2.82,9.14-5.24,10.75-7.25a11.9,11.9,0,0,0,2.42-7.66c0-6.31-5.11-11.42-14.78-11.42C1309.2,143.51,1304.63,147.41,1299.79,155.06Z"/><path class="cls-1" d="M1331.1,230.7a83,83,0,0,0,15-10.88c4.84-4.17,7.93-7.93,9.14-11.15-4.17,1.88-6.86,2.82-8.2,2.82-5.24,0-8.33-2.82-6.31-8.6,1.74-4.7,7.25-9,12.76-9,5.78,0,8.46,3.76,6.31,9.8a38.24,38.24,0,0,1-11,15.86,82.09,82.09,0,0,1-17.2,12.22Z"/><path class="cls-1" d="M663,202.06V118.88h31.2q9.54,0,15.3,2.53a19.7,19.7,0,0,1,9,7.77,20.54,20.54,0,0,1,3.26,11,18.92,18.92,0,0,1-2.89,10,20.73,20.73,0,0,1-8.74,7.61,21.7,21.7,0,0,1,11.6,7.54,20.2,20.2,0,0,1,4.06,12.6,24.25,24.25,0,0,1-2.47,10.87,21.09,21.09,0,0,1-6.1,7.74,25.28,25.28,0,0,1-9.11,4.11,55.21,55.21,0,0,1-13.42,1.39Zm11-48.23h18q7.32,0,10.5-1a11.6,11.6,0,0,0,6.32-4.14,11.92,11.92,0,0,0,2.13-7.26,13.42,13.42,0,0,0-2-7.3,10.09,10.09,0,0,0-5.68-4.31q-3.69-1.16-12.65-1.16H674Zm0,38.42h20.71a46.83,46.83,0,0,0,7.49-.4,17.83,17.83,0,0,0,6.36-2.27,12.11,12.11,0,0,0,4.2-4.62,14.46,14.46,0,0,0,1.64-7,13.83,13.83,0,0,0-2.38-8.09,12.62,12.62,0,0,0-6.61-4.82q-4.23-1.39-12.17-1.39H674Z"/><path class="cls-1" d="M774,182.66l10.56,1.3a25.77,25.77,0,0,1-9.25,14.36q-6.76,5.1-17.25,5.11-13.23,0-21-8.15t-7.74-22.83q0-15.21,7.83-23.61t20.31-8.4q12.09,0,19.75,8.23t7.66,23.15q0,.92-.06,2.73H739.85q.57,9.93,5.62,15.2A16.69,16.69,0,0,0,758.06,195a15.61,15.61,0,0,0,9.59-2.95Q771.63,189.13,774,182.66Zm-33.53-16.51h33.65q-.69-7.6-3.86-11.41a15.68,15.68,0,0,0-12.66-5.9,16.23,16.23,0,0,0-11.83,4.71Q740.94,158.26,740.42,166.15Z"/><path class="cls-1" d="M829.68,194.63a37.92,37.92,0,0,1-10.92,6.81,31.69,31.69,0,0,1-11.27,2q-9.93,0-15.26-4.85a16,16,0,0,1-5.33-12.4,16.76,16.76,0,0,1,7.29-14,24.72,24.72,0,0,1,7.34-3.35,73.11,73.11,0,0,1,9.08-1.53q12.38-1.47,18.22-3.52c0-1.4,0-2.29,0-2.67q0-6.24-2.89-8.79-3.91-3.47-11.63-3.46-7.22,0-10.64,2.52t-5.08,8.94l-10-1.36a24.78,24.78,0,0,1,4.49-10.36,19.61,19.61,0,0,1,9-6.07,40.17,40.17,0,0,1,13.67-2.13,36.15,36.15,0,0,1,12.54,1.82,16.51,16.51,0,0,1,7.1,4.57,16,16,0,0,1,3.17,6.95,57.59,57.59,0,0,1,.51,9.42v13.61q0,14.25.66,18a22.39,22.39,0,0,0,2.58,7.23H831.72A21.49,21.49,0,0,1,829.68,194.63Zm-.85-22.81q-5.57,2.28-16.68,3.86a39.23,39.23,0,0,0-8.91,2,8.92,8.92,0,0,0-4,3.32,9,9,0,0,0,1.67,11.66q3.09,2.73,9,2.73a21,21,0,0,0,10.5-2.59,15.9,15.9,0,0,0,6.75-7.06q1.65-3.47,1.65-10.21Z"/><path class="cls-1" d="M887.5,202.06v-8.85q-7,10.22-19.12,10.22a24.29,24.29,0,0,1-10-2.05,16.36,16.36,0,0,1-6.86-5.13,19.09,19.09,0,0,1-3.15-7.58,51.53,51.53,0,0,1-.62-9.53V141.81H858v33.42a60.34,60.34,0,0,0,.62,10.78,10.69,10.69,0,0,0,4.09,6.32,12.59,12.59,0,0,0,7.71,2.3,16.82,16.82,0,0,0,8.63-2.35,13.06,13.06,0,0,0,5.7-6.41q1.68-4.06,1.68-11.78V141.81h10.21v60.25Z"/><path class="cls-1" d="M928,192.93l1.47,9a37.47,37.47,0,0,1-7.71.91q-5.57,0-8.63-1.76a9.83,9.83,0,0,1-4.31-4.62q-1.24-2.86-1.25-12.06V149.75h-7.49v-7.94h7.49V126.88l10.16-6.13v21.06H928v7.94H917.7V185q0,4.37.54,5.61a4.14,4.14,0,0,0,1.76,2,6.77,6.77,0,0,0,3.48.74A34.23,34.23,0,0,0,928,192.93Z"/><path class="cls-1" d="M930.53,225.27l-1.14-9.59a22.56,22.56,0,0,0,5.85.91,11.26,11.26,0,0,0,5.44-1.13,9.27,9.27,0,0,0,3.35-3.18,50.77,50.77,0,0,0,3.12-7.61c.19-.56.49-1.4.91-2.49l-22.87-60.37h11l12.54,34.89q2.44,6.65,4.37,14a135.59,135.59,0,0,1,4.2-13.73l12.88-35.12H980.4l-22.92,61.28a121,121,0,0,1-5.73,13.67,20.25,20.25,0,0,1-6.24,7.41,14.84,14.84,0,0,1-8.4,2.35A20.49,20.49,0,0,1,930.53,225.27Z"/><path class="cls-1" d="M976.15,202.06V190.43h11.64v11.63q0,6.42-2.27,10.36a14.85,14.85,0,0,1-7.21,6.1l-2.84-4.37a9.73,9.73,0,0,0,4.77-4.17,17.73,17.73,0,0,0,1.7-7.92Z"/><path class="cls-1" d="M503.42,310.31a38.5,38.5,0,0,1-10.92,6.81,31.69,31.69,0,0,1-11.27,2q-9.93,0-15.26-4.85a16,16,0,0,1-5.34-12.4,16.8,16.8,0,0,1,7.3-14,24.72,24.72,0,0,1,7.34-3.35,72.77,72.77,0,0,1,9.08-1.53q12.38-1.49,18.22-3.52c0-1.4.05-2.29.05-2.67q0-6.24-2.89-8.79-3.92-3.46-11.63-3.46-7.22,0-10.64,2.52T472.38,276l-10-1.36a24.78,24.78,0,0,1,4.49-10.36,19.61,19.61,0,0,1,9-6.07,40.17,40.17,0,0,1,13.67-2.13,36.15,36.15,0,0,1,12.54,1.82,16.6,16.6,0,0,1,7.1,4.56,16.1,16.1,0,0,1,3.17,7,57.44,57.44,0,0,1,.51,9.41v13.62q0,14.25.66,18a22.47,22.47,0,0,0,2.58,7.23H505.46A21.55,21.55,0,0,1,503.42,310.31Zm-.85-22.81q-5.56,2.26-16.69,3.86a38.18,38.18,0,0,0-8.9,2,8.86,8.86,0,0,0-4,3.32,9,9,0,0,0,1.67,11.66c2.06,1.82,5.08,2.72,9.05,2.72a21.09,21.09,0,0,0,10.5-2.58,15.9,15.9,0,0,0,6.75-7.06c1.1-2.31,1.65-5.71,1.65-10.22Z"/><path class="cls-1" d="M522.91,317.74V257.48h9.2v8.57q6.63-9.93,19.18-9.93a25.07,25.07,0,0,1,10,2,15.85,15.85,0,0,1,6.84,5.13,19.71,19.71,0,0,1,3.17,7.55,58.2,58.2,0,0,1,.57,9.93v37.05H561.67V281.09c0-4.16-.4-7.28-1.19-9.34a9.86,9.86,0,0,0-4.23-4.93,13.44,13.44,0,0,0-7.12-1.85,16.53,16.53,0,0,0-11.26,4.14q-4.74,4.15-4.74,15.72v32.91Z"/><path class="cls-1" d="M620.83,317.74v-7.6q-5.73,9-16.85,9a23.58,23.58,0,0,1-13.25-4A26.16,26.16,0,0,1,581.36,304,38.41,38.41,0,0,1,578,287.67a42.92,42.92,0,0,1,3-16.37,23.73,23.73,0,0,1,9-11.26,24.12,24.12,0,0,1,13.45-3.92,20.09,20.09,0,0,1,9.7,2.3,20.36,20.36,0,0,1,6.93,6V234.56H630.3v83.18Zm-32.29-30.07q0,11.58,4.88,17.31t11.52,5.73a14.46,14.46,0,0,0,11.38-5.48q4.68-5.48,4.68-16.71,0-12.37-4.77-18.16a14.64,14.64,0,0,0-11.74-5.78,14.14,14.14,0,0,0-11.38,5.56Q588.53,275.69,588.54,287.67Z"/><path class="cls-1" d="M687.4,317.74V244.38H660v-9.82h65.93v9.82H698.4v73.36Z"/><path class="cls-1" d="M758.47,298.34l10.55,1.3A25.74,25.74,0,0,1,759.78,314q-6.76,5.1-17.25,5.1-13.23,0-21-8.14t-7.75-22.84q0-15.19,7.84-23.6t20.31-8.4q12.09,0,19.74,8.23t7.66,23.15c0,.6,0,1.51-.05,2.72H724.37q.57,9.93,5.62,15.21a16.69,16.69,0,0,0,12.59,5.28,15.67,15.67,0,0,0,9.59-2.95Q756.15,304.81,758.47,298.34Zm-33.53-16.52h33.64c-.45-5.06-1.74-8.87-3.85-11.4a15.69,15.69,0,0,0-12.66-5.9,16.23,16.23,0,0,0-11.83,4.71Q725.44,273.94,724.94,281.82Z"/><path class="cls-1" d="M815.36,295.67l10,1.3q-1.65,10.39-8.42,16.26a24.54,24.54,0,0,1-16.66,5.87q-12.36,0-19.88-8.08t-7.52-23.18a41.88,41.88,0,0,1,3.23-17.08,22.56,22.56,0,0,1,9.85-11,29.18,29.18,0,0,1,14.38-3.66q9.81,0,16.06,5t8,14.1l-9.93,1.53q-1.43-6.08-5-9.14a13,13,0,0,0-8.71-3.06,15.83,15.83,0,0,0-12.54,5.53q-4.83,5.54-4.83,17.51,0,12.13,4.66,17.64a15.14,15.14,0,0,0,12.14,5.51,14.29,14.29,0,0,0,10-3.69Q814.29,303.33,815.36,295.67Z"/><path class="cls-1" d="M828.33,317.74V234.56h10.21V264.4a22.84,22.84,0,0,1,18.05-8.28,24.32,24.32,0,0,1,11.63,2.64,15.46,15.46,0,0,1,7.06,7.29q2.13,4.65,2.13,13.5v38.19H867.2V279.55q0-7.65-3.32-11.14t-9.39-3.49a16.55,16.55,0,0,0-8.54,2.35,13.27,13.27,0,0,0-5.7,6.38q-1.71,4-1.71,11.12v33Z"/><path class="cls-1" d="M890,317.74V306.11h11.63v11.63Z"/><path class="cls-1" d="M293.61,44.14q0-20.7,11.12-32.42T333.44,0a39.84,39.84,0,0,1,20.77,5.5,35.92,35.92,0,0,1,14.1,15.35,49.94,49.94,0,0,1,4.85,22.33,48.94,48.94,0,0,1-5.11,22.64,34.79,34.79,0,0,1-14.46,15.12,41.31,41.31,0,0,1-20.2,5.14,39.3,39.3,0,0,1-21-5.68,36.44,36.44,0,0,1-14-15.49A46.88,46.88,0,0,1,293.61,44.14Zm11.35.17q0,15,8.08,23.69a28.2,28.2,0,0,0,40.74-.08q8-8.74,8-24.8a42.59,42.59,0,0,0-3.43-17.73,26.4,26.4,0,0,0-10-11.74A27.26,27.26,0,0,0,333.5,9.48a28.17,28.17,0,0,0-20.12,8Q305,25.54,305,44.31Z"/><path class="cls-1" d="M419.72,84.66V75.81Q412.68,86,400.6,86a24.41,24.41,0,0,1-10-2,16.38,16.38,0,0,1-6.86-5.14,19,19,0,0,1-3.15-7.57,51.52,51.52,0,0,1-.63-9.54V24.4h10.22V57.82a59.3,59.3,0,0,0,.62,10.78,10.67,10.67,0,0,0,4.09,6.33,12.65,12.65,0,0,0,7.71,2.29,16.82,16.82,0,0,0,8.63-2.35,13.15,13.15,0,0,0,5.7-6.41q1.68-4.06,1.67-11.78V24.4h10.22V84.66Z"/><path class="cls-1" d="M438.94,84.66V24.4h9.19v9.13q3.51-6.41,6.49-8.45a11.36,11.36,0,0,1,6.56-2,19.89,19.89,0,0,1,10.5,3.29l-3.52,9.47a14.69,14.69,0,0,0-7.49-2.21,9.76,9.76,0,0,0-6,2,11,11,0,0,0-3.8,5.59,40,40,0,0,0-1.7,11.92V84.66Z"/><path class="cls-1" d="M537.51,84.66V77.05q-5.73,9-16.86,9a23.71,23.71,0,0,1-13.25-4A26.24,26.24,0,0,1,498,71a38.35,38.35,0,0,1-3.32-16.37,43,43,0,0,1,3-16.37,23.78,23.78,0,0,1,9-11.26A24.11,24.11,0,0,1,520.2,23a20.09,20.09,0,0,1,9.7,2.29,20.39,20.39,0,0,1,6.93,6V1.48H547V84.66ZM505.22,54.58q0,11.58,4.88,17.31t11.52,5.73A14.46,14.46,0,0,0,533,72.15q4.68-5.48,4.68-16.71,0-12.37-4.77-18.16a14.66,14.66,0,0,0-11.75-5.79,14.16,14.16,0,0,0-11.37,5.56Q505.22,42.61,505.22,54.58Z"/><path class="cls-1" d="M598.48,65.25,609,66.56a25.71,25.71,0,0,1-9.24,14.35Q593,86,582.54,86q-13.23,0-21-8.14T553.83,55q0-15.21,7.83-23.61T582,23q12.09,0,19.74,8.22t7.67,23.15q0,.92-.06,2.73H564.38q.57,9.93,5.62,15.2a16.69,16.69,0,0,0,12.59,5.28,15.61,15.61,0,0,0,9.59-3Q596.16,71.72,598.48,65.25ZM565,48.74h33.64q-.68-7.6-3.85-11.4a15.67,15.67,0,0,0-12.66-5.91,16.23,16.23,0,0,0-11.83,4.71Q565.46,40.85,565,48.74Z"/><path class="cls-1" d="M612,66.67l10.1-1.59a14.15,14.15,0,0,0,4.74,9.31q3.88,3.23,10.87,3.23t10.44-2.86a8.56,8.56,0,0,0,3.4-6.73,6.19,6.19,0,0,0-3-5.44q-2.1-1.37-10.44-3.47-11.23-2.84-15.57-4.9a14.89,14.89,0,0,1-8.83-13.82,15.5,15.5,0,0,1,1.85-7.46,16.47,16.47,0,0,1,5-5.7,20.76,20.76,0,0,1,6.5-3A30.62,30.62,0,0,1,635.85,23a35,35,0,0,1,12.46,2,17,17,0,0,1,7.91,5.53A21.76,21.76,0,0,1,659.74,40l-10,1.36A11,11,0,0,0,645.81,34c-2.18-1.73-5.25-2.61-9.22-2.61q-7,0-10.05,2.33a6.78,6.78,0,0,0-3,5.45,5.59,5.59,0,0,0,1.25,3.57,9,9,0,0,0,3.91,2.73q1.53.56,9,2.61a127.17,127.17,0,0,1,15.12,4.73,15.34,15.34,0,0,1,6.73,5.37A15,15,0,0,1,662,67a17.12,17.12,0,0,1-3,9.62,19.21,19.21,0,0,1-8.6,7A31.19,31.19,0,0,1,637.72,86q-11.75,0-17.9-4.88T612,66.67Z"/><path class="cls-1" d="M668.4,13.22V1.48h10.21V13.22Zm0,71.44V24.4h10.21V84.66Z"/><path class="cls-1" d="M686.48,89.65l9.92,1.48c.42,3.06,1.57,5.29,3.47,6.69q3.79,2.84,10.38,2.84,7.1,0,11-2.84a14,14,0,0,0,5.22-7.94q.8-3.12.74-13.11a21,21,0,0,1-16.68,7.89q-12.43,0-19.24-9t-6.81-21.5a40,40,0,0,1,3.12-15.92A25,25,0,0,1,696.6,27a24.44,24.44,0,0,1,13.93-4,21.59,21.59,0,0,1,17.59,8.62V24.4h9.42V76.49q0,14.07-2.86,19.94a21,21,0,0,1-9.08,9.28q-6.21,3.41-15.29,3.4-10.78,0-17.42-4.85T686.48,89.65Zm8.45-36.2q0,11.86,4.71,17.31a15.54,15.54,0,0,0,23.6,0q4.77-5.41,4.77-17,0-11.07-4.91-16.68a15.15,15.15,0,0,0-11.83-5.62A14.74,14.74,0,0,0,699.7,37Q694.93,42.56,694.93,53.45Z"/><path class="cls-1" d="M747.17,84.66V24.4h9.19V33Q763,23,775.54,23a25.21,25.21,0,0,1,10,1.95,15.75,15.75,0,0,1,6.84,5.14,19.81,19.81,0,0,1,3.18,7.55,59.6,59.6,0,0,1,.56,9.93V84.66H785.92V48q0-6.24-1.19-9.33a9.89,9.89,0,0,0-4.23-4.94,13.43,13.43,0,0,0-7.12-1.84A16.55,16.55,0,0,0,762.12,36q-4.74,4.14-4.74,15.72V84.66Z"/><path class="cls-1" d="M801.9,66.67,812,65.08c.57,4,2.14,7.15,4.74,9.31s6.21,3.23,10.86,3.23,8.17-1,10.44-2.86A8.57,8.57,0,0,0,841.45,68a6.21,6.21,0,0,0-3-5.44q-2.1-1.37-10.44-3.47-11.24-2.84-15.58-4.9A14.86,14.86,0,0,1,803.6,40.4a15.5,15.5,0,0,1,1.84-7.46,16.5,16.5,0,0,1,5-5.7,20.7,20.7,0,0,1,6.49-3A30.74,30.74,0,0,1,825.79,23a34.91,34.91,0,0,1,12.45,2,17,17,0,0,1,7.92,5.53A21.63,21.63,0,0,1,849.67,40l-10,1.36a11,11,0,0,0-4-7.27c-2.17-1.73-5.24-2.61-9.22-2.61q-7,0-10,2.33a6.79,6.79,0,0,0-3,5.45,5.65,5.65,0,0,0,1.25,3.57,9,9,0,0,0,3.92,2.73q1.53.56,9,2.61a128.43,128.43,0,0,1,15.12,4.73,15.26,15.26,0,0,1,6.72,5.37A14.9,14.9,0,0,1,851.94,67a17.18,17.18,0,0,1-3,9.62,19.26,19.26,0,0,1-8.6,7A31.23,31.23,0,0,1,827.66,86q-11.74,0-17.9-4.88T801.9,66.67Z"/><path class="cls-1" d="M887.19,84.66V32.34h-9V24.4h9V18a28.09,28.09,0,0,1,1.08-9,13.08,13.08,0,0,1,5.19-6.44Q897.18.06,903.87.06a50.09,50.09,0,0,1,9.54,1L911.87,10a34.1,34.1,0,0,0-6-.57c-3.1,0-5.3.66-6.58,2s-1.93,3.81-1.93,7.44V24.4h11.74v7.94H897.35V84.66Z"/><path class="cls-1" d="M950.72,84.66V75.81Q943.69,86,931.6,86a24.38,24.38,0,0,1-10-2,16.48,16.48,0,0,1-6.87-5.14,19.18,19.18,0,0,1-3.14-7.57,51.52,51.52,0,0,1-.63-9.54V24.4h10.21V57.82a59,59,0,0,0,.63,10.78,10.65,10.65,0,0,0,4.08,6.33,12.68,12.68,0,0,0,7.72,2.29,16.78,16.78,0,0,0,8.62-2.35A13.12,13.12,0,0,0,948,68.46q1.66-4.06,1.67-11.78V24.4h10.21V84.66Z"/><path class="cls-1" d="M966,66.67l10.1-1.59a14.15,14.15,0,0,0,4.74,9.31q3.88,3.23,10.86,3.23t10.44-2.86a8.57,8.57,0,0,0,3.41-6.73,6.19,6.19,0,0,0-3-5.44q-2.1-1.37-10.44-3.47-11.23-2.84-15.57-4.9a14.85,14.85,0,0,1-8.83-13.82,15.5,15.5,0,0,1,1.85-7.46,16.47,16.47,0,0,1,5-5.7,20.76,20.76,0,0,1,6.5-3A30.62,30.62,0,0,1,989.85,23a34.87,34.87,0,0,1,12.45,2,17,17,0,0,1,7.92,5.53,21.76,21.76,0,0,1,3.52,9.34l-10,1.36A11,11,0,0,0,999.81,34c-2.18-1.73-5.25-2.61-9.22-2.61q-7,0-10.05,2.33a6.78,6.78,0,0,0-3,5.45,5.64,5.64,0,0,0,1.24,3.57,9.05,9.05,0,0,0,3.92,2.73q1.53.56,9,2.61a127.17,127.17,0,0,1,15.12,4.73,15.34,15.34,0,0,1,6.73,5.37A15,15,0,0,1,1016,67a17.2,17.2,0,0,1-3,9.62,19.21,19.21,0,0,1-8.6,7A31.19,31.19,0,0,1,991.72,86q-11.75,0-17.9-4.88T966,66.67Z"/><path class="cls-1" d="M1063.59,65.25l10.55,1.31a25.73,25.73,0,0,1-9.25,14.35Q1058.14,86,1047.64,86q-13.22,0-21-8.14T1018.93,55q0-15.21,7.83-23.61T1047.08,23q12.08,0,19.74,8.22t7.66,23.15c0,.61,0,1.52,0,2.73h-44.94q.57,9.93,5.61,15.2a16.73,16.73,0,0,0,12.6,5.28,15.61,15.61,0,0,0,9.59-3Q1061.27,71.72,1063.59,65.25Zm-33.54-16.51h33.65q-.67-7.6-3.86-11.4a15.64,15.64,0,0,0-12.65-5.91,16.23,16.23,0,0,0-11.83,4.71C1032.16,39.28,1030.4,43.48,1030.05,48.74Z"/></g></g></svg>