<svg width="31" height="20" viewBox="0 0 31 20" fill="none" xmlns="http://www.w3.org/2000/svg">
<path d="M12.61 9C13.4538 8.90192 14.2249 8.47541 14.7565 7.81284C15.288 7.15026 15.5372 6.30495 15.45 5.45999C15.45 2.13999 13.12 0.51001 10.18 0.51001H0.5V19.12H10.18C10.18 19.12 16.09 19.3 16.09 13.62C16.09 13.61 16.35 9 12.61 9ZM4.77002 3.82001H10.18C10.18 3.82001 11.5 3.82 11.5 5.75C11.5 7.68 10.72 7.97 9.84998 7.97H4.77002V3.82001ZM9.92999 15.82H4.77002V10.82H10.18C10.18 10.82 12.18 10.82 12.18 13.37C12.14 15.53 10.71 15.78 9.92999 15.8V15.82Z" fill="white"/>
<path d="M24 5.23001C16.85 5.23001 16.86 12.38 16.86 12.38C16.86 12.38 16.36 19.49 24 19.49C24 19.49 30.37 19.86 30.37 14.55H27.1C27.1 14.55 27.21 16.55 24.1 16.55C23.6629 16.5911 23.2222 16.5357 22.8088 16.3878C22.3955 16.24 22.0196 16.0032 21.7077 15.6942C21.3959 15.3853 21.1557 15.0116 21.004 14.5996C20.8523 14.1877 20.793 13.7474 20.83 13.31H30.47C30.47 13.31 31.5 5.23001 24 5.23001ZM26.91 10.83H20.8C20.9105 10.0373 21.3029 9.31093 21.9053 8.78387C22.5076 8.25682 23.2796 7.96434 24.08 7.95999C24.4548 7.95569 24.8267 8.02751 25.173 8.17111C25.5192 8.31472 25.8327 8.52714 26.0945 8.79547C26.3563 9.0638 26.5609 9.38246 26.6959 9.73218C26.8309 10.0819 26.8935 10.4554 26.88 10.83H26.91Z" fill="white"/>
<path d="M27.65 1.60001H20V3.89001H27.68L27.65 1.60001Z" fill="white"/>
</svg>
