<svg width="25" height="30" viewBox="0 0 25 30" fill="none" xmlns="http://www.w3.org/2000/svg">
<path d="M25 12.42C22.5396 12.4193 20.1461 11.6191 18.18 10.14V20.46C18.09 22.2339 17.4817 23.9425 16.4304 25.3741C15.3791 26.8058 13.9311 27.8977 12.2655 28.5147C10.5999 29.1316 8.7899 29.2465 7.05966 28.8451C5.32942 28.4437 3.75488 27.5436 2.53103 26.2564C1.30718 24.9691 0.487767 23.3512 0.17422 21.6029C-0.139328 19.8546 0.0667605 18.0527 0.766993 16.4204C1.46723 14.788 2.63085 13.3969 4.11376 12.4193C5.59668 11.4416 7.33376 10.9203 9.10995 10.92C9.59941 10.9222 10.0878 10.9657 10.57 11.05V16.51C10.1163 16.3379 9.63514 16.2498 9.14996 16.25C8.29783 16.1979 7.44971 16.403 6.71557 16.8388C5.98144 17.2745 5.39518 17.9208 5.0328 18.6938C4.67042 19.4668 4.54865 20.3308 4.68328 21.1739C4.81791 22.0169 5.20273 22.8 5.78784 23.4217C6.37294 24.0434 7.13135 24.4749 7.96469 24.6604C8.79802 24.8458 9.66785 24.7766 10.4614 24.4616C11.2549 24.1467 11.9355 23.6007 12.4149 22.8943C12.8943 22.1879 13.1504 21.3537 13.15 20.5V0H18.21C18.1749 1.84308 18.8683 3.62558 20.1396 4.96051C21.4108 6.29544 23.1574 7.07504 25 7.13V12.42Z" fill="white"/>
</svg>
