<svg width="33" height="32" viewBox="0 0 33 32" fill="none" xmlns="http://www.w3.org/2000/svg">
<path d="M16.5 0C13.3355 0 10.242 0.93837 7.61081 2.69647C4.97962 4.45457 2.92887 6.95346 1.71787 9.87708C0.506865 12.8007 0.190103 16.0178 0.807466 19.1215C1.42483 22.2252 2.94861 25.0761 5.18625 27.3137C7.42389 29.5514 10.2748 31.0752 13.3785 31.6926C16.4822 32.3099 19.6993 31.993 22.6229 30.782C25.5465 29.571 28.0453 27.5203 29.8034 24.8891C31.5615 22.2579 32.5 19.1645 32.5 16C32.5 11.7565 30.8143 7.68686 27.8137 4.68628C24.8131 1.6857 20.7434 0 16.5 0ZM24.76 20.82C24.7521 21.2506 24.5741 21.6605 24.265 21.9603C23.9558 22.2601 23.5406 22.4253 23.11 22.42H9.88999C9.45938 22.4253 9.04411 22.2601 8.73496 21.9603C8.4258 21.6605 8.24785 21.2506 8.23996 20.82V12.88L16.24 17.16C16.3025 17.1894 16.3708 17.2047 16.4399 17.2047C16.5091 17.2047 16.5774 17.1894 16.64 17.16L24.6999 12.88L24.76 20.82ZM16.5 15.65L8.24997 11.17C8.25786 10.7421 8.43476 10.3347 8.74204 10.0367C9.04932 9.73883 9.46203 9.57466 9.88999 9.58002H23.11C23.5372 9.57457 23.9494 9.73709 24.258 10.0326C24.5666 10.3281 24.7469 10.7329 24.76 11.16L16.5 15.65Z" fill="white"/>
</svg>
