<svg width="27" height="28" viewBox="0 0 27 28" fill="none" xmlns="http://www.w3.org/2000/svg">
<path fill-rule="evenodd" clip-rule="evenodd" d="M6.75 0.5C4.95979 0.5 3.24292 1.21115 1.97705 2.47702C0.71118 3.74289 0 5.45979 0 7.25V20.75C0 21.6364 0.174575 22.5142 0.513794 23.3331C0.853013 24.152 1.35026 24.8962 1.97705 25.523C2.60385 26.1498 3.34792 26.647 4.16687 26.9862C4.98582 27.3254 5.86358 27.5 6.75 27.5H20.25C21.1364 27.5 22.0142 27.3254 22.8331 26.9862C23.6521 26.647 24.3962 26.1498 25.0229 25.523C25.6497 24.8962 26.147 24.152 26.4862 23.3331C26.8254 22.5142 27 21.6364 27 20.75V7.25C27 5.45979 26.2888 3.74289 25.0229 2.47702C23.7571 1.21115 22.0402 0.5 20.25 0.5H6.75ZM6.53998 21.5H9.70001V11.3H6.53998V21.5ZM6.31 8.09C6.30732 8.33106 6.35283 8.57022 6.44385 8.79346C6.53487 9.01669 6.66956 9.21952 6.84003 9.38998C7.01049 9.56045 7.21329 9.69515 7.43652 9.78616C7.65976 9.87718 7.89895 9.92269 8.14001 9.92001C8.62455 9.91739 9.08847 9.72373 9.43109 9.3811C9.77372 9.03848 9.96734 8.57453 9.96997 8.09C9.96997 7.60465 9.77721 7.13918 9.43402 6.79599C9.09083 6.4528 8.62536 6.26001 8.14001 6.26001C7.65467 6.26001 7.1892 6.4528 6.84601 6.79599C6.50282 7.13918 6.31 7.60465 6.31 8.09ZM18.43 21.5H21.54V15.88C21.54 13.12 20.96 11.03 17.76 11.03C17.1574 11.0076 16.56 11.1493 16.0317 11.4399C15.5033 11.7305 15.0638 12.1591 14.76 12.68V11.3H11.76V21.5H14.92V16.5C14.92 15.17 15.19 13.88 16.84 13.88C18.49 13.88 18.49 15.39 18.49 16.59L18.43 21.5Z" fill="white"/>
</svg>
