<svg width="27" height="28" viewBox="0 0 27 28" fill="none" xmlns="http://www.w3.org/2000/svg">
<path d="M13.5 2.92999C17.1 2.92999 17.5 2.93001 18.95 3.01001C19.6937 2.94604 20.4423 3.04542 21.1435 3.30121C21.8447 3.557 22.4814 3.96301 23.0092 4.49078C23.537 5.01856 23.943 5.65535 24.1988 6.35654C24.4546 7.05773 24.554 7.80634 24.49 8.54999C24.55 9.96999 24.57 10.4 24.57 14C24.57 17.6 24.57 18 24.49 19.45C24.5545 20.1899 24.4573 20.935 24.2051 21.6335C23.9529 22.3321 23.5517 22.9675 23.0294 23.4955C22.507 24.0235 21.8761 24.4316 21.1803 24.6914C20.4845 24.9512 19.7406 25.0565 19 25C17.58 25.06 17.15 25.08 13.55 25.08C9.94999 25.08 9.55001 25.08 8.10001 25C7.35636 25.064 6.60772 24.9646 5.90652 24.7088C5.20533 24.453 4.56855 24.047 4.04077 23.5192C3.51299 22.9914 3.10698 22.3547 2.8512 21.6535C2.59541 20.9523 2.49602 20.2036 2.56 19.46C2.5 18.04 2.48001 17.61 2.48001 14.01C2.48001 10.41 2.48 10.01 2.56 8.56C2.49602 7.81635 2.59541 7.06771 2.8512 6.36652C3.10698 5.66532 3.51299 5.02854 4.04077 4.50076C4.56855 3.97299 5.20533 3.56701 5.90652 3.31122C6.60772 3.05543 7.35636 2.95602 8.10001 3.01999C9.47001 2.99999 9.9 2.92999 13.5 2.92999ZM13.5 0.5C9.83 0.5 9.36999 0.499987 7.92999 0.579987C6.88626 0.53156 5.8439 0.701461 4.86957 1.07883C3.89524 1.45619 3.01037 2.03272 2.27155 2.77155C1.53272 3.51037 0.956193 4.39524 0.578827 5.36957C0.201461 6.3439 0.03156 7.38626 0.0799866 8.42999C0.0199866 9.86999 0 10.33 0 14C0 17.67 -1.34259e-05 18.13 0.0799866 19.57C0.03156 20.6137 0.201461 21.6561 0.578827 22.6304C0.956193 23.6048 1.53272 24.4896 2.27155 25.2285C3.01037 25.9673 3.89524 26.5438 4.86957 26.9212C5.8439 27.2985 6.88626 27.4684 7.92999 27.42C9.36999 27.48 9.83 27.5 13.5 27.5C17.17 27.5 17.63 27.5 19.07 27.42C20.1137 27.4684 21.1561 27.2985 22.1304 26.9212C23.1048 26.5438 23.9896 25.9673 24.7285 25.2285C25.4673 24.4896 26.0438 23.6048 26.4212 22.6304C26.7985 21.6561 26.9684 20.6137 26.92 19.57C26.98 18.13 27 17.67 27 14C27 10.33 27 9.86999 26.92 8.42999C26.9684 7.38626 26.7985 6.3439 26.4212 5.36957C26.0438 4.39524 25.4673 3.51037 24.7285 2.77155C23.9896 2.03272 23.1048 1.45619 22.1304 1.07883C21.1561 0.701461 20.1137 0.53156 19.07 0.579987C17.63 0.519987 17.17 0.5 13.5 0.5Z" fill="white"/>
<path d="M13.44 6.67001C11.9566 6.67001 10.5065 7.10988 9.27317 7.93399C8.03981 8.7581 7.0785 9.92942 6.51084 11.2999C5.94319 12.6703 5.79467 14.1783 6.08406 15.6332C6.37345 17.088 7.08774 18.4244 8.13664 19.4733C9.18553 20.5222 10.5219 21.2365 11.9768 21.5259C13.4316 21.8153 14.9396 21.6667 16.3101 21.0991C17.6805 20.5314 18.8519 19.5702 19.676 18.3368C20.5001 17.1034 20.94 15.6534 20.94 14.17C20.94 13.1851 20.746 12.2098 20.3691 11.2999C19.9922 10.3899 19.4397 9.56314 18.7432 8.8667C18.0468 8.17026 17.22 7.61782 16.3101 7.24091C15.4001 6.864 14.4249 6.67001 13.44 6.67001ZM13.44 19.04C12.4768 19.04 11.5352 18.7544 10.7343 18.2193C9.93346 17.6841 9.30925 16.9235 8.94065 16.0337C8.57206 15.1438 8.47561 14.1646 8.66352 13.2199C8.85143 12.2752 9.31527 11.4075 9.99635 10.7264C10.6774 10.0453 11.5452 9.5815 12.4898 9.39359C13.4345 9.20568 14.4138 9.30212 15.3036 9.67072C16.1935 10.0393 16.9541 10.6635 17.4892 11.4644C18.0243 12.2653 18.3099 13.2068 18.3099 14.17C18.2994 15.4547 17.7816 16.6831 16.8695 17.5878C15.9573 18.4924 14.7247 19 13.44 19V19.04Z" fill="white"/>
<path d="M20.74 8.47C21.0663 8.47 21.3853 8.37322 21.6566 8.19192C21.928 8.01062 22.1395 7.75291 22.2644 7.45141C22.3893 7.14991 22.4219 6.81817 22.3583 6.4981C22.2946 6.17803 22.1375 5.88401 21.9067 5.65325C21.676 5.4225 21.3819 5.26535 21.0619 5.20169C20.7418 5.13802 20.41 5.1707 20.1086 5.29559C19.8071 5.42047 19.5493 5.63197 19.368 5.90332C19.1867 6.17466 19.09 6.49366 19.09 6.82C19.09 7.25761 19.2638 7.67729 19.5732 7.98672C19.8827 8.29615 20.3024 8.47 20.74 8.47Z" fill="white"/>
</svg>
