<svg width="20" height="20" viewBox="0 0 20 20" fill="none" xmlns="http://www.w3.org/2000/svg">
<path d="M9.56005 0.619995C7.68113 0.619995 5.84442 1.17713 4.28216 2.22101C2.71989 3.26488 1.50223 4.7486 0.783195 6.4845C0.0641627 8.2204 -0.123953 10.1305 0.242607 11.9733C0.609167 13.8161 1.51392 15.5089 2.84252 16.8375C4.17112 18.1661 5.8639 19.0709 7.70672 19.4374C9.54954 19.804 11.4597 19.6159 13.1955 18.8969C14.9314 18.1778 16.4152 16.9602 17.459 15.3979C18.5029 13.8356 19.0601 11.9989 19.0601 10.12C19.0601 7.60044 18.0592 5.18406 16.2776 3.40247C14.496 1.62087 12.0796 0.619995 9.56005 0.619995ZM13.9401 6L9.66003 15.88C9.64602 15.9121 9.62299 15.9394 9.59368 15.9586C9.56437 15.9778 9.53008 15.988 9.49505 15.988C9.46001 15.988 9.42572 15.9778 9.39642 15.9586C9.36711 15.9394 9.34407 15.9121 9.33007 15.88L7.59008 12.15C7.57055 12.1439 7.54961 12.1439 7.53008 12.15L3.81005 10.4C3.77793 10.386 3.75063 10.3629 3.73144 10.3336C3.71224 10.3043 3.70202 10.27 3.70202 10.235C3.70202 10.2 3.71224 10.1657 3.73144 10.1364C3.75063 10.107 3.77793 10.084 3.81005 10.07L13.68 5.78998C13.7178 5.77018 13.7609 5.76299 13.803 5.76941C13.8452 5.77583 13.8842 5.79554 13.9144 5.82568C13.9445 5.85583 13.9642 5.89486 13.9706 5.93701C13.9771 5.97916 13.9699 6.02224 13.9501 6.06L13.9401 6Z" fill="white"/>
</svg>
