<svg width="33" height="32" viewBox="0 0 33 32" fill="none" xmlns="http://www.w3.org/2000/svg">
<path d="M16.12 0C12.9555 0 9.86208 0.93837 7.2309 2.69647C4.59971 4.45457 2.54895 6.95346 1.33795 9.87708C0.12695 12.8007 -0.189934 16.0178 0.42743 19.1215C1.04479 22.2252 2.56864 25.0761 4.80628 27.3137C7.04392 29.5514 9.89484 31.0752 12.9985 31.6926C16.1022 32.3099 19.3193 31.993 22.2429 30.782C25.1665 29.571 27.6654 27.5203 29.4235 24.8891C31.1816 22.2579 32.12 19.1645 32.12 16C32.12 11.7565 30.4343 7.68686 27.4337 4.68628C24.4331 1.6857 20.3635 0 16.12 0ZM23.02 20.35C23.0116 20.7397 22.9248 21.1238 22.7651 21.4794C22.6053 21.835 22.3758 22.1548 22.09 22.42C21.8078 22.6866 21.4744 22.8933 21.11 23.0273C20.7456 23.1614 20.3577 23.2202 19.97 23.2C15.04 23.04 8.96997 17.55 9.21997 11.66C9.23293 11.1308 9.38572 10.6144 9.66278 10.1633C9.93984 9.71224 10.3313 9.34253 10.7975 9.09167C11.2637 8.84082 11.7879 8.71777 12.317 8.73505C12.8461 8.75232 13.3612 8.90927 13.81 9.19C14.2329 9.46873 14.58 9.84807 14.8202 10.294C15.0604 10.7399 15.1861 11.2385 15.1861 11.745C15.1861 12.2515 15.0604 12.7501 14.8202 13.196C14.58 13.6419 14.2329 14.0213 13.81 14.3C13.73 14.3 13.65 14.46 13.69 14.54C13.7682 15.5421 14.1753 16.4904 14.848 17.2373C15.5208 17.9842 16.4214 18.4879 17.41 18.67C17.4586 18.6768 17.5082 18.6679 17.5514 18.6445C17.5946 18.6211 17.6291 18.5844 17.65 18.54C18.0257 18.0271 18.5546 17.6469 19.1603 17.454C19.7661 17.2612 20.4175 17.2658 21.0205 17.4672C21.6235 17.6685 22.147 18.0563 22.5153 18.5744C22.8837 19.0925 23.0779 19.7143 23.07 20.35H23.02Z" fill="#F4F4F4"/>
</svg>
