<svg width="27" height="28" viewBox="0 0 27 28" fill="none" xmlns="http://www.w3.org/2000/svg">
<mask id="mask0_12_270" style="mask-type:luminance" maskUnits="userSpaceOnUse" x="0" y="0" width="27" height="28">
<path d="M27 0.5H0V27.5H27V0.5Z" fill="white"/>
</mask>
<g mask="url(#mask0_12_270)">
<path d="M13.5 0.5C10.83 0.5 8.21989 1.29175 5.99982 2.77515C3.77976 4.25855 2.04941 6.367 1.02763 8.8338C0.00584304 11.3006 -0.261493 14.015 0.259407 16.6337C0.780308 19.2525 2.06607 21.658 3.95408 23.546C5.84209 25.434 8.24754 26.7197 10.8663 27.2406C13.485 27.7615 16.1994 27.4941 18.6662 26.4724C21.133 25.4506 23.2415 23.7202 24.7249 21.5002C26.2083 19.2801 27 16.67 27 14C26.9921 10.422 25.5672 6.99286 23.0372 4.46283C20.5072 1.9328 17.078 0.507925 13.5 0.5ZM19.69 20C19.6376 20.0961 19.5657 20.1802 19.4791 20.2471C19.3924 20.3139 19.2928 20.362 19.1866 20.3884C19.0803 20.4147 18.9697 20.4187 18.8619 20.4C18.754 20.3814 18.6512 20.3405 18.56 20.28C15.41 18.28 11.42 17.92 6.69001 18.99C6.48017 19.0251 6.26482 18.9793 6.08744 18.8618C5.91006 18.7443 5.78386 18.5639 5.73435 18.357C5.68484 18.1501 5.7157 17.9321 5.82069 17.747C5.92568 17.562 6.09698 17.4236 6.3 17.36C11.42 16.23 15.86 16.68 19.41 18.82C19.5077 18.8774 19.5928 18.954 19.6601 19.0451C19.7274 19.1362 19.7756 19.24 19.8017 19.3503C19.8279 19.4605 19.8315 19.5749 19.8123 19.6865C19.7931 19.7982 19.7515 19.9048 19.69 20ZM21.32 16.29C21.2514 16.4067 21.1598 16.5083 21.0508 16.5886C20.9418 16.6689 20.8176 16.7262 20.6857 16.7571C20.5539 16.7879 20.4171 16.7917 20.2838 16.7681C20.1505 16.7446 20.0233 16.6942 19.91 16.62C17.888 15.4745 15.657 14.7455 13.3488 14.4758C11.0405 14.2062 8.70163 14.4014 6.47001 15.05C6.20479 15.1322 5.91777 15.1057 5.6721 14.9763C5.42642 14.8469 5.24223 14.6252 5.16001 14.36C5.07779 14.0948 5.10431 13.8077 5.23371 13.5621C5.36311 13.3164 5.5848 13.1322 5.85001 13.05C10.946 11.6398 16.3931 12.3049 21 14.9C21.1159 14.9695 21.2166 15.0616 21.2959 15.171C21.3752 15.2804 21.4315 15.4048 21.4614 15.5366C21.4913 15.6684 21.4942 15.8049 21.4699 15.9378C21.4456 16.0707 21.3946 16.1973 21.32 16.31V16.29ZM21.49 12.52C17.16 10 10 9.73 5.85001 11C5.53682 11.0897 5.20142 11.0596 4.90928 10.9153C4.61714 10.7711 4.38921 10.5232 4.27 10.22C4.17087 9.90558 4.19789 9.56499 4.34531 9.27014C4.49274 8.9753 4.74902 8.74935 5.06001 8.64001C9.84001 7.23001 17.77 7.52 22.73 10.44C23.0186 10.6128 23.2275 10.8921 23.3117 11.2177C23.396 11.5433 23.3486 11.889 23.18 12.18C22.9913 12.4366 22.715 12.615 22.4035 12.6814C22.0919 12.7478 21.7669 12.6974 21.49 12.54V12.52Z" fill="white"/>
</g>
</svg>
