<svg width="39" height="16" viewBox="0 0 39 16" fill="none" xmlns="http://www.w3.org/2000/svg">
<path d="M31.83 0.869995V1.70001H32.93C33.281 1.69737 33.6291 1.7642 33.9541 1.8967C34.2791 2.02919 34.5747 2.22472 34.8239 2.47198C35.073 2.71925 35.2707 3.0134 35.4056 3.33743C35.5406 3.66147 35.61 4.00898 35.61 4.35999V6.54999H35.82C36.5291 6.54998 37.2092 6.83098 37.7115 7.33142C38.2139 7.83186 38.4974 8.51096 38.5 9.22V12.84C38.5 13.4456 38.2601 14.0266 37.8328 14.4557C37.4055 14.8849 36.8256 15.1274 36.22 15.13H35.84C35.265 15.127 34.7119 14.9087 34.2899 14.5181C33.8679 14.1275 33.6075 13.593 33.56 13.02V12.84H36V10C36 9.89935 35.98 9.79968 35.9412 9.70682C35.9024 9.61395 35.8455 9.52975 35.7739 9.45905C35.7022 9.38834 35.6173 9.33255 35.5239 9.29495C35.4306 9.25735 35.3306 9.23867 35.23 9.23999H31.85V15.08H29.34V9.23001H26.83V6.53H29.34V4.39001H27.69V1.67999H29.34V0.839996L31.83 0.869995ZM8 0.940002V12.94C8.00704 13.2294 7.95471 13.5173 7.84625 13.7857C7.73779 14.0542 7.57551 14.2975 7.36938 14.5009C7.16326 14.7042 6.91768 14.8631 6.64777 14.9679C6.37786 15.0726 6.08931 15.121 5.79999 15.11C4.69999 15.11 4.02999 14.39 3.79999 12.94H5.57001V0.940002H8ZM26 1.70999V4.42001H24.36V12.42H26.86V15.12H18L19.32 12.42H21.82V4.42001H20.19V1.70999H26ZM14.28 12.19C14.6159 12.3889 14.9996 12.4926 15.39 12.49H18L16.8 15.12H13.8C13.4788 15.1128 13.1638 15.0306 12.88 14.88L14.21 12.19H14.28ZM3.84998 4.37C3.80614 6.41412 3.6459 8.45411 3.37 10.48C3.1427 11.6899 2.6696 12.8402 1.97998 13.86L0.5 11C0.714662 10.5294 0.846608 10.0254 0.890015 9.51001C0.950015 8.87001 1.06998 7.16999 1.22998 4.39999L3.84998 4.37ZM12.22 4.37C12.38 7.14 12.49 8.84001 12.57 9.48001C12.6045 9.93561 12.7056 10.3837 12.87 10.81L12.95 10.97L11.54 13.86C10.8564 12.8381 10.3869 11.6883 10.16 10.48C9.89715 8.61372 9.74026 6.73404 9.69 4.85001V4.37H12.22ZM18.44 0.940002C17.51 2.88 17 3.94 16.89 4.19C16.78 4.44 16.74 4.76999 16.89 4.82999C17.04 4.88999 17.13 4.73001 17.22 4.42001H19.72C18.62 6.85001 17.99 8.18001 17.84 8.42001C17.69 8.66001 17.48 9.26999 17.84 9.26999H19.1L18.1 11.5H15.48C14.7 11.5 14.31 10.87 14.67 10.01C14.9 9.43001 15.34 8.46001 15.96 7.10001H14.49C14.08 7.10001 13.31 6.53001 13.81 5.45001C14.14 4.72001 14.86 3.21999 15.96 0.929993L18.44 0.940002ZM31.88 4.42001V6.56H33.14V4.75C33.1414 4.67719 33.1171 4.60624 33.0714 4.54956C33.0256 4.49288 32.9615 4.45408 32.89 4.44H31.89L31.88 4.42001ZM37.29 1.70999C37.6198 1.72554 37.9306 1.86893 38.1565 2.10974C38.3824 2.35056 38.5056 2.66988 38.5 3V3.10001C38.5 3.27814 38.4648 3.45451 38.3963 3.61896C38.3278 3.7834 38.2275 3.93265 38.1011 4.05814C37.9747 4.18363 37.8246 4.28288 37.6597 4.35013C37.4947 4.41738 37.3181 4.45133 37.14 4.45001H36V3C36 2.66583 36.1327 2.34534 36.369 2.10904C36.6053 1.87274 36.9258 1.73999 37.26 1.73999L37.29 1.70999Z" fill="white"/>
</svg>
